<svg width="20" height="20" viewBox="0 0 20 20" fill="none" xmlns="http://www.w3.org/2000/svg">
<path d="M10 20C7.32891 20 4.8177 18.9598 2.92891 17.0711C1.0402 15.1823 0 12.6711 0 10C0 7.32891 1.0402 4.8177 2.92891 2.92891C4.8177 1.0402 7.32891 0 10 0C12.6711 0 15.1823 1.0402 17.0711 2.92891C18.9598 4.8177 20 7.32891 20 10C20 12.6711 18.9598 15.1823 17.0711 17.0711C15.1823 18.9598 12.6711 20 10 20Z" fill="#FFC107"/>
<path d="M17.0711 2.92891C15.1823 1.0402 12.6711 0 10 0V20C12.6711 20 15.1823 18.9598 17.0711 17.0711C18.9598 15.1823 20 12.6711 20 10C20 7.32891 18.9598 4.8177 17.0711 2.92891Z" fill="#FFD964"/>
<path d="M11.7578 14.4922V8.63281H7.46094V9.80469H8.24219V14.4922H7.42188V15.6641H12.5V14.4922H11.7578Z" fill="white"/>
<path d="M10 7.46094C10.9693 7.46094 11.7578 6.67238 11.7578 5.70312C11.7578 4.73387 10.9693 3.94531 10 3.94531C9.03074 3.94531 8.24219 4.73387 8.24219 5.70312C8.24219 6.67238 9.03074 7.46094 10 7.46094Z" fill="white"/>
<path d="M10 7.46094C10.9693 7.46094 11.7578 6.67238 11.7578 5.70312C11.7578 4.73387 10.9693 3.94531 10 3.94531V7.46094Z" fill="#EDF3F5"/>
<path d="M11.7578 14.4922V8.63281H10V15.6641H12.5V14.4922H11.7578Z" fill="#EDF3F5"/>
</svg>
