<svg width="20" height="20" viewBox="0 0 20 20" fill="none" xmlns="http://www.w3.org/2000/svg">
<g clip-path="url(#clip0_800_3575)">
<path d="M9.99999 2.14286C9.81055 2.14286 9.62887 2.0676 9.49492 1.93365C9.36096 1.79969 9.28571 1.61801 9.28571 1.42857V0.714286C9.28571 0.524845 9.36096 0.343164 9.49492 0.209209C9.62887 0.0752549 9.81055 0 9.99999 0C10.1894 0 10.3711 0.0752549 10.5051 0.209209C10.639 0.343164 10.7143 0.524845 10.7143 0.714286V1.42857C10.7143 1.61801 10.639 1.79969 10.5051 1.93365C10.3711 2.0676 10.1894 2.14286 9.99999 2.14286Z" fill="#FFB666"/>
<path d="M9.99999 17.8574C10.1894 17.8574 10.3711 17.9327 10.5051 18.0666C10.639 18.2006 10.7143 18.3823 10.7143 18.5717V19.286C10.7143 19.4754 10.639 19.6571 10.5051 19.7911C10.3711 19.925 10.1894 20.0003 9.99999 20.0003C9.81055 20.0003 9.62887 19.925 9.49492 19.7911C9.36096 19.6571 9.28571 19.4754 9.28571 19.286V18.5717C9.28571 18.3823 9.36096 18.2006 9.49492 18.0666C9.62887 17.9327 9.81055 17.8574 9.99999 17.8574Z" fill="#FFB666"/>
<path d="M0.714281 9.28613H1.42857C1.61801 9.28613 1.79969 9.36139 1.93364 9.49534C2.0676 9.6293 2.14285 9.81098 2.14285 10.0004C2.14285 10.1899 2.0676 10.3715 1.93364 10.5055C1.79969 10.6394 1.61801 10.7147 1.42857 10.7147H0.714281C0.524841 10.7147 0.343159 10.6394 0.209205 10.5055C0.0752501 10.3715 -4.23193e-06 10.1899 -4.23193e-06 10.0004C-4.23193e-06 9.81098 0.0752501 9.6293 0.209205 9.49534C0.343159 9.36139 0.524841 9.28613 0.714281 9.28613Z" fill="#FFB666"/>
<path d="M18.5714 9.28613H19.2857C19.4752 9.28613 19.6568 9.36139 19.7908 9.49534C19.9247 9.6293 20 9.81098 20 10.0004C20 10.1899 19.9247 10.3715 19.7908 10.5055C19.6568 10.6394 19.4752 10.7147 19.2857 10.7147H18.5714C18.382 10.7147 18.2003 10.6394 18.0664 10.5055C17.9324 10.3715 17.8571 10.1899 17.8571 10.0004C17.8571 9.81098 17.9324 9.6293 18.0664 9.49534C18.2003 9.36139 18.382 9.28613 18.5714 9.28613Z" fill="#FFB666"/>
<path d="M3.93929 2.92856L4.44429 3.43356C4.51251 3.49945 4.56693 3.57827 4.60436 3.66541C4.6418 3.75256 4.6615 3.84629 4.66233 3.94113C4.66315 4.03597 4.64508 4.13003 4.60916 4.21781C4.57325 4.30559 4.52021 4.38534 4.45314 4.45241C4.38608 4.51948 4.30633 4.57251 4.21855 4.60843C4.13076 4.64434 4.03671 4.66242 3.94186 4.66159C3.84702 4.66077 3.75329 4.64106 3.66615 4.60363C3.579 4.56619 3.50019 4.51178 3.4343 4.44356L2.92858 3.93927C2.86222 3.87291 2.80958 3.79412 2.77366 3.70741C2.73774 3.62071 2.71926 3.52777 2.71926 3.43392C2.71926 3.34007 2.73774 3.24713 2.77366 3.16042C2.80958 3.07371 2.86222 2.99493 2.92858 2.92856C2.99495 2.8622 3.07373 2.80956 3.16044 2.77364C3.24715 2.73772 3.34009 2.71924 3.43394 2.71924C3.52779 2.71924 3.62072 2.73772 3.70743 2.77364C3.79414 2.80956 3.87293 2.8622 3.93929 2.92856V2.92856Z" fill="#FFB666"/>
<path d="M16.5657 15.5553L17.0714 16.0603C17.1378 16.1266 17.1904 16.2054 17.2263 16.2921C17.2623 16.3788 17.2807 16.4718 17.2807 16.5656C17.2807 16.6595 17.2623 16.7524 17.2263 16.8391C17.1904 16.9258 17.1378 17.0046 17.0714 17.071C16.9374 17.205 16.7556 17.2803 16.5661 17.2803C16.4722 17.2803 16.3793 17.2618 16.2926 17.2259C16.2059 17.19 16.1271 17.1373 16.0607 17.071L15.5557 16.566C15.4893 16.4997 15.4367 16.4209 15.4008 16.3343C15.3648 16.2476 15.3463 16.1547 15.3463 16.0609C15.3462 15.9671 15.3647 15.8741 15.4006 15.7875C15.4364 15.7008 15.489 15.622 15.5553 15.5556C15.6217 15.4893 15.7004 15.4366 15.7871 15.4007C15.8737 15.3647 15.9666 15.3462 16.0605 15.3462C16.2499 15.3461 16.4317 15.4213 16.5657 15.5553Z" fill="#FFB666"/>
<path d="M3.43428 15.5555C3.569 15.4254 3.74943 15.3534 3.93671 15.355C4.124 15.3566 4.30315 15.4318 4.43558 15.5642C4.56802 15.6966 4.64314 15.8758 4.64476 16.0631C4.64639 16.2503 4.5744 16.4308 4.44428 16.5655L3.93928 17.0712C3.80525 17.2052 3.62347 17.2805 3.43393 17.2805C3.24438 17.2805 3.0626 17.2052 2.92857 17.0712C2.79454 16.9372 2.71924 16.7554 2.71924 16.5658C2.71924 16.3763 2.79454 16.1945 2.92857 16.0605L3.43428 15.5555Z" fill="#FFB666"/>
<path d="M16.5657 4.44427C16.431 4.57439 16.2506 4.64638 16.0633 4.64476C15.876 4.64313 15.6968 4.56801 15.5644 4.43557C15.432 4.30314 15.3569 4.12399 15.3552 3.93671C15.3536 3.74942 15.4256 3.56899 15.5557 3.43428L16.0607 2.92856C16.1947 2.79453 16.3765 2.71924 16.5661 2.71924C16.7556 2.71924 16.9374 2.79453 17.0714 2.92856C17.2054 3.06259 17.2807 3.24437 17.2807 3.43392C17.2807 3.62346 17.2054 3.80525 17.0714 3.93928L16.5657 4.44427Z" fill="#FFB666"/>
<path d="M3.7857 11.0589C3.87785 10.968 3.99298 10.9038 4.1188 10.8732C4.24461 10.8426 4.37637 10.8468 4.49998 10.8853C4.97929 11.0334 5.47834 11.1076 5.97998 11.1053C7.33926 11.104 8.64249 10.5635 9.60371 9.60243C10.5649 8.64134 11.1056 7.33819 11.1071 5.97892C11.1089 5.47744 11.0342 4.97862 10.8857 4.49963C10.8469 4.37588 10.8426 4.24392 10.8731 4.11789C10.9036 3.99186 10.9679 3.87651 11.059 3.78423C11.1501 3.69195 11.2646 3.62621 11.3903 3.59407C11.5159 3.56193 11.6479 3.56459 11.7721 3.60177C12.8564 3.92967 13.8372 4.53299 14.6189 5.3529C15.4005 6.17281 15.9563 7.1813 16.2321 8.28002C16.5078 9.37875 16.4941 10.5302 16.1923 11.622C15.8904 12.7139 15.3107 13.7088 14.5097 14.5099C13.7088 15.3109 12.7139 15.8907 11.622 16.1926C10.5302 16.4946 9.3788 16.5084 8.28006 16.2328C7.18131 15.9571 6.17276 15.4014 5.35279 14.6198C4.53281 13.8382 3.9294 12.8575 3.60141 11.7732C3.56422 11.6486 3.56173 11.5163 3.59421 11.3904C3.62668 11.2646 3.69289 11.1499 3.7857 11.0589V11.0589Z" fill="#FFCE61"/>
</g>
<defs>
<clipPath id="clip0_800_3575">
<rect width="20" height="20" fill="white" transform="matrix(-1 0 0 1 20 0)"/>
</clipPath>
</defs>
</svg>
