<svg width="40" height="40" viewBox="0 0 40 40" fill="none" xmlns="http://www.w3.org/2000/svg">
<path d="M5.84867 14.5401C6.475 7.27404 12.5716 1.57178 20 1.57178C27.4284 1.57178 33.525 7.27404 34.1513 14.5401H31.6441C31.0261 8.65428 26.0487 4.06764 20 4.06764C13.9513 4.06764 8.9739 8.65428 8.35594 14.5401H5.84867Z" fill="#8A3636"/>
<path d="M5.13102 27.6904C5.54844 27.7224 6.05344 27.7407 6.56078 27.711C6.83102 29.0815 7.19039 31.6786 8.66055 33.1488C9.99094 34.4792 11.7954 35.2266 13.6769 35.2266H16.9704C16.9283 35.4567 16.9067 35.6915 16.9067 35.9286C16.9067 36.1683 16.9284 36.4029 16.9697 36.6305H13.6769C11.423 36.6305 9.26156 35.7352 7.66781 34.1415C5.85039 32.3241 5.41344 29.4433 5.13102 27.6904Z" fill="#681D1D"/>
<path d="M8.9968 15.6807C8.9968 14.7837 8.35344 14.0566 7.55969 14.0566H4.57055C3.35836 14.0566 2.19578 14.6009 1.33867 15.5695C0.481563 16.5381 0 17.8519 0 19.2218V23.2059C0 24.5759 0.481563 25.8896 1.33867 26.8582C2.19578 27.8269 3.35836 28.371 4.57055 28.371H7.55969C8.35344 28.371 8.9968 27.644 8.9968 26.747V15.6807Z" fill="#8A3636"/>
<path d="M5.15516 14.0566V28.371H4.57055C3.35836 28.371 2.19578 27.8269 1.33867 26.8582C0.481563 25.8896 0 24.5759 0 23.2059V19.2218C0 17.8519 0.481563 16.5381 1.33867 15.5695C2.19578 14.6009 3.35836 14.0566 4.57055 14.0566H5.15516Z" fill="#681D1D"/>
<path d="M40 19.2218C40 17.8519 39.5184 16.5381 38.6613 15.5695C37.8042 14.6009 36.6416 14.0566 35.4295 14.0566H32.4403C31.6466 14.0566 31.0032 14.7837 31.0032 15.6807V26.747C31.0032 27.644 31.6466 28.371 32.4403 28.371H35.4295C36.6416 28.371 37.8042 27.8269 38.6613 26.8582C39.5184 25.8896 40 24.5759 40 23.2059V19.2218Z" fill="#8A3636"/>
<path d="M34.8448 14.0566H35.4295C36.6416 14.0566 37.8042 14.6009 38.6613 15.5695C39.5184 16.5381 40 17.8519 40 19.2218V23.2059C40 24.5759 39.5184 25.8896 38.6613 26.8582C37.8042 27.8269 36.6416 28.371 35.4295 28.371H34.8448V14.0566Z" fill="#681D1D"/>
<path d="M24.0292 35.9288C24.0292 34.5486 22.9103 33.4297 21.5301 33.4297H18.4699C17.8071 33.4297 17.1714 33.693 16.7027 34.1617C16.2341 34.6304 15.9708 35.266 15.9708 35.9288C15.9708 37.3091 17.0897 38.428 18.4699 38.428H21.5301C22.9103 38.428 24.0292 37.3091 24.0292 35.9288Z" fill="#8A3636"/>
</svg>
