<svg width="32" height="32" viewBox="0 0 32 32" fill="none" xmlns="http://www.w3.org/2000/svg">
<g clip-path="url(#clip0_847_3690)">
<path d="M3.71118 28.0439H10.8362V31.3951H3.71118V28.0439Z" fill="#FECA9C"/>
<path d="M31.0695 19.4355L29.9935 19.932C29.701 20.2251 29.5951 20.0656 29.302 19.7725L20.5906 11.6973L21.6881 10.6004L22.5412 10.3682L25.4146 11.3464L31.7563 17.688C32.0495 17.9805 32.0495 18.4555 31.7563 18.7486L31.0695 19.4355Z" fill="#FECA9C"/>
<path d="M31.0695 19.4356L30.2295 20.2756C29.937 20.5688 29.462 20.5688 29.1688 20.2756L20.595 11.7018L21.6968 10.6006L30.3263 19.23C30.5282 19.4319 30.812 19.5 31.0695 19.4356Z" fill="#FDB97E"/>
<path d="M32 29.3511V31.4173C32 31.6929 31.7762 31.9173 31.5 31.9173H0.587158C0.310908 31.9173 0.0871582 31.6929 0.0871582 31.4173V29.3511C0.0871582 29.0748 0.310908 28.8511 0.587158 28.8511H31.5C31.7762 28.8511 32 29.0748 32 29.3511Z" fill="#FECA9C"/>
<path d="M10.8667 28.8708H3.72226C1.40351 28.8708 -0.350298 26.7739 0.0597017 24.4926L0.463452 22.2426C1.0572 18.9357 3.93414 16.5288 7.29414 16.5288C7.48852 16.5288 7.68164 16.5369 7.87227 16.5532C9.33039 16.6738 10.6741 17.2482 11.7473 18.1457C12.9611 19.1607 13.8286 20.5888 14.1255 22.2426L14.5292 24.4926C14.9386 26.7739 13.1848 28.8708 10.8667 28.8708V28.8708Z" fill="#FFF9E2"/>
<path d="M4.65289 28.8708H3.72227C1.40351 28.8708 -0.350298 26.7739 0.0597017 24.4926L0.463452 22.2426C1.0572 18.9357 3.93414 16.5288 7.29414 16.5288C7.48852 16.5288 7.68164 16.5369 7.87227 16.5532C4.92477 16.9907 2.52408 19.2494 1.9847 22.2382L1.57408 24.5076C1.1972 26.5957 2.6272 28.5295 4.65289 28.8708V28.8708Z" fill="#FEF0AE"/>
<path d="M6.69531 7.13424L7.20419 6.40805L13.3099 0.302363C13.603 0.00923826 14.078 0.00923826 14.3705 0.302363L25.415 11.3461L18.7787 17.9824L17.8976 18.5386C17.1638 19.0779 16.5111 18.8938 15.8479 18.2301L6.89744 9.22993L6.69531 7.13424Z" fill="#B4D2E2"/>
<path d="M18.0261 18.7045C17.2923 19.2439 16.2548 19.1814 15.5917 18.5176L6.66908 9.59508C6.00533 8.93133 5.94283 7.89445 6.48221 7.1607L7.20408 6.4082C6.97346 7.09945 7.13346 7.89195 7.68346 8.44258L16.7441 17.5033C17.2948 18.0539 18.0879 18.2133 18.7785 17.9826L18.0261 18.7045Z" fill="#8ABBD5"/>
<path d="M13.2927 0.319824L7.84229 5.7702C7.84616 5.7657 7.85004 5.76182 7.85391 5.75795L13.2927 0.319824Z" fill="#DFF6FD"/>
<path d="M13.8403 4.62149C14.4275 4.62149 14.9035 4.14549 14.9035 3.5583C14.9035 2.97112 14.4275 2.49512 13.8403 2.49512C13.2531 2.49512 12.7771 2.97112 12.7771 3.5583C12.7771 4.14549 13.2531 4.62149 13.8403 4.62149Z" fill="#F2FBFF"/>
<path d="M12.2274 26.2875C12.0287 26.525 11.5881 26.9238 10.8668 26.9238H3.72236C3.00111 26.9238 2.56049 26.525 2.36174 26.2875C2.16299 26.0506 1.84924 25.5463 1.97611 24.8363L2.38049 22.5863C2.80799 20.2044 4.87486 18.4756 7.2943 18.4756C7.50805 18.4756 7.7193 18.4893 7.9268 18.5156C10.0668 18.7862 11.8187 20.415 12.2087 22.5863L12.6125 24.8363C12.7399 25.5463 12.4256 26.0506 12.2274 26.2875V26.2875Z" fill="#EE6161"/>
<path d="M3.52799 24.86C3.40049 25.5775 3.71486 26.0875 3.91299 26.3269C4.07111 26.5181 4.38174 26.8113 4.86424 26.9238H3.72236C3.00111 26.9238 2.56049 26.525 2.36174 26.2875C2.16299 26.0506 1.84924 25.5463 1.97611 24.8363L2.38049 22.5863C2.80799 20.2044 4.87486 18.4756 7.2943 18.4756C7.50805 18.4756 7.7193 18.4893 7.9268 18.5156C5.91867 18.8925 4.30424 20.4887 3.93174 22.585L3.52799 24.86Z" fill="#E94444"/>
<path d="M7.29434 23.9979C8.01135 23.9979 8.59259 23.4166 8.59259 22.6996C8.59259 21.9826 8.01135 21.4014 7.29434 21.4014C6.57734 21.4014 5.99609 21.9826 5.99609 22.6996C5.99609 23.4166 6.57734 23.9979 7.29434 23.9979Z" fill="#FFF9E2"/>
<path d="M2.15466 31.9173H0.587158C0.310908 31.9173 0.0871582 31.6929 0.0871582 31.4173V29.3511C0.0871582 29.0748 0.310908 28.8511 0.587158 28.8511H2.15466C1.86966 28.8511 1.63841 29.0823 1.63841 29.3673V31.4004C1.63841 31.6861 1.86966 31.9173 2.15466 31.9173V31.9173Z" fill="#FDB97E"/>
</g>
<defs>
<clipPath id="clip0_847_3690">
<rect width="32" height="32" fill="white"/>
</clipPath>
</defs>
</svg>
