<svg width="20" height="20" viewBox="0 0 20 20" fill="none" xmlns="http://www.w3.org/2000/svg">
<path d="M13.6194 0.680738C13.5035 0.628233 13.3744 0.612323 13.2493 0.635133C13.1242 0.657943 13.009 0.718387 12.9191 0.808393C12.8292 0.898398 12.769 1.01368 12.7463 1.13884C12.7237 1.26401 12.7398 1.39309 12.7925 1.50886C13.2935 2.61034 13.551 3.80693 13.5475 5.01699C13.5449 7.27864 12.6452 9.4469 11.046 11.0461C9.44678 12.6454 7.27852 13.545 5.01687 13.5476C3.80681 13.5511 2.61023 13.2936 1.50875 12.7926C1.39298 12.7399 1.2639 12.7238 1.13873 12.7464C1.01357 12.7691 0.898286 12.8293 0.80828 12.9192C0.718274 13.0091 0.65783 13.1243 0.63502 13.2494C0.612211 13.3745 0.628121 13.5036 0.680626 13.6195C1.33149 15.0621 2.32274 16.3253 3.56928 17.3005C4.81581 18.2758 6.28039 18.9339 7.83729 19.2185C9.39418 19.5031 10.9969 19.4056 12.5078 18.9344C14.0187 18.4632 15.3927 17.6324 16.5119 16.5132C17.631 15.3941 18.4618 14.0201 18.933 12.5092C19.4042 10.9982 19.5017 9.39555 19.2171 7.83865C18.9326 6.28175 18.2744 4.81717 17.2992 3.57064C16.324 2.32411 15.0608 1.33286 13.6181 0.681988L13.6194 0.680738Z" fill="#50CEFF"/>
</svg>
