<svg width="48" height="48" viewBox="0 0 48 48" fill="none" xmlns="http://www.w3.org/2000/svg">
<path d="M38.3538 34.4684C37.4382 33.5496 35.9538 33.5496 35.0382 34.4684C34.1227 35.3873 34.1227 36.8772 35.0382 37.796L37.2851 40.0511L35.2007 42.143C34.2852 43.0621 34.2852 44.5519 35.2007 45.4705C36.1163 46.3896 37.6007 46.3896 38.5163 45.4705L40.6007 43.3788L42.5872 45.3722C43.5025 46.2912 44.987 46.2912 45.9027 45.3722C46.818 44.4536 46.818 42.9637 45.9027 42.0446L43.916 40.0511L46.0007 37.9588C46.9164 37.04 46.9164 35.5502 46.0007 34.6313C45.0854 33.7124 43.6009 33.7124 42.6852 34.6313L40.6007 36.7236L38.3538 34.4684Z" fill="url(#paint0_linear_1264_2269)"/>
<path d="M38.3538 34.4684C37.4382 33.5496 35.9538 33.5496 35.0382 34.4684C34.1227 35.3873 34.1227 36.8772 35.0382 37.796L37.2851 40.0511L35.2007 42.143C34.2852 43.0621 34.2852 44.5519 35.2007 45.4705C36.1163 46.3896 37.6007 46.3896 38.5163 45.4705L40.6007 43.3788L42.5872 45.3722C43.5025 46.2912 44.987 46.2912 45.9027 45.3722C46.818 44.4536 46.818 42.9637 45.9027 42.0446L43.916 40.0511L46.0007 37.9588C46.9164 37.04 46.9164 35.5502 46.0007 34.6313C45.0854 33.7124 43.6009 33.7124 42.6852 34.6313L40.6007 36.7236L38.3538 34.4684Z" fill="#681D1D"/>
<path fill-rule="evenodd" clip-rule="evenodd" d="M36.3852 12C36.3852 18.6274 31.137 24 24.6631 24C18.1891 24 12.9409 18.6274 12.9409 12C12.9409 5.37256 18.1891 0 24.6631 0C31.137 0 36.3852 5.37256 36.3852 12ZM31.6964 12C31.6964 16.1167 28.4604 19.2941 24.6631 19.2941C20.8658 19.2941 17.6298 16.1167 17.6298 12C17.6298 7.88329 20.8658 4.70588 24.6631 4.70588C28.4604 4.70588 31.6964 7.88329 31.6964 12Z" fill="url(#paint1_linear_1264_2269)"/>
<path fill-rule="evenodd" clip-rule="evenodd" d="M36.3852 12C36.3852 18.6274 31.137 24 24.6631 24C18.1891 24 12.9409 18.6274 12.9409 12C12.9409 5.37256 18.1891 0 24.6631 0C31.137 0 36.3852 5.37256 36.3852 12ZM31.6964 12C31.6964 16.1167 28.4604 19.2941 24.6631 19.2941C20.8658 19.2941 17.6298 16.1167 17.6298 12C17.6298 7.88329 20.8658 4.70588 24.6631 4.70588C28.4604 4.70588 31.6964 7.88329 31.6964 12Z" fill="#681D1D"/>
<path d="M12.9409 26.8235C6.46695 26.8235 1.21875 32.0907 1.21875 38.5882V45.647C1.21875 46.9463 2.2684 48 3.56318 48C4.85797 48 5.90762 46.9463 5.90762 45.647V38.5882C5.90762 34.6897 9.05652 31.5294 12.9409 31.5294H34.9786C36.2734 31.5294 37.323 30.4759 37.323 29.1764C37.323 27.8769 36.2734 26.8235 34.9786 26.8235H12.9409Z" fill="url(#paint2_linear_1264_2269)"/>
<path d="M12.9409 26.8235C6.46695 26.8235 1.21875 32.0907 1.21875 38.5882V45.647C1.21875 46.9463 2.2684 48 3.56318 48C4.85797 48 5.90762 46.9463 5.90762 45.647V38.5882C5.90762 34.6897 9.05652 31.5294 12.9409 31.5294H34.9786C36.2734 31.5294 37.323 30.4759 37.323 29.1764C37.323 27.8769 36.2734 26.8235 34.9786 26.8235H12.9409Z" fill="#681D1D"/>
<defs>
<linearGradient id="paint0_linear_1264_2269" x1="23.9532" y1="-6.99656e-05" x2="23.9532" y2="47.9999" gradientUnits="userSpaceOnUse">
<stop stop-color="#FF0000"/>
<stop offset="0.9999" stop-color="#FCB9B4" stop-opacity="0.432"/>
<stop offset="1" stop-color="#3F2AC5"/>
</linearGradient>
<linearGradient id="paint1_linear_1264_2269" x1="23.9532" y1="0" x2="23.9532" y2="48" gradientUnits="userSpaceOnUse">
<stop stop-color="#FF0000"/>
<stop offset="0.9999" stop-color="#FCB9B4" stop-opacity="0.432"/>
<stop offset="1" stop-color="#3F2AC5"/>
</linearGradient>
<linearGradient id="paint2_linear_1264_2269" x1="23.9532" y1="-4.41233e-05" x2="23.9532" y2="48" gradientUnits="userSpaceOnUse">
<stop stop-color="#FF0000"/>
<stop offset="0.9999" stop-color="#FCB9B4" stop-opacity="0.432"/>
<stop offset="1" stop-color="#3F2AC5"/>
</linearGradient>
</defs>
</svg>
