<svg width="32" height="32" viewBox="0 0 32 32" fill="none" xmlns="http://www.w3.org/2000/svg">
<g clip-path="url(#clip0_771_5979)">
<path d="M31.9982 22.2993C31.9982 23.2478 31.2286 24.0174 30.2802 24.0174H6.15626C5.20776 24.0174 4.43823 23.2478 4.43823 22.2993V6.83716C4.43823 5.88867 5.20776 5.11914 6.15626 5.11914H19.972C20.9205 5.11914 21.69 5.88867 21.69 6.83716V13.1366H25.1977V16.2147C25.1977 17.1632 25.9672 17.9327 26.9157 17.9327H31.9588C32.0131 18.2155 31.9982 18.0132 31.9982 22.2993Z" fill="#FFAA64"/>
<path d="M31.9981 22.2995C31.9981 23.248 31.2286 24.0175 30.2801 24.0175H21.6899V13.1367H27.7102C28.4668 13.1367 29.1755 13.5111 29.6022 14.136L31.5994 17.0624C31.779 17.3258 31.9014 17.6229 31.9587 17.9329C32.013 18.2157 31.9981 18.0133 31.9981 22.2995Z" fill="#FE4F60"/>
<path d="M31.9589 17.9329H26.9158C25.9673 17.9329 25.1978 17.1633 25.1978 16.2149V13.1367H27.7104C28.467 13.1367 29.1757 13.5111 29.6023 14.136L31.5995 17.0624C31.7792 17.3258 31.9016 17.6229 31.9589 17.9329Z" fill="#E8F8FC"/>
<path d="M19.9675 7.98251H14.8716C10.6908 7.98251 7.3016 11.3717 7.3016 15.5525V22.2948C7.3016 24.161 4.43823 24.2506 4.43823 22.2993V6.83716C4.43823 5.88831 5.2074 5.11914 6.15625 5.11914H19.972C21.9232 5.11914 21.8337 7.98251 19.9675 7.98251Z" fill="#FFBD7B"/>
<path d="M27.202 26.8805C28.7834 26.8805 30.0654 25.5986 30.0654 24.0172C30.0654 22.4358 28.7834 21.1538 27.202 21.1538C25.6206 21.1538 24.3386 22.4358 24.3386 24.0172C24.3386 25.5986 25.6206 26.8805 27.202 26.8805Z" fill="#42434D"/>
<path d="M10.0218 26.8805C11.6032 26.8805 12.8852 25.5986 12.8852 24.0172C12.8852 22.4358 11.6032 21.1538 10.0218 21.1538C8.44042 21.1538 7.15845 22.4358 7.15845 24.0172C7.15845 25.5986 8.44042 26.8805 10.0218 26.8805Z" fill="#42434D"/>
<path d="M7.37318 8.76986H0.572674C0.256415 8.76986 0 8.51345 0 8.19719C0 7.88093 0.256415 7.62451 0.572674 7.62451H7.37318C7.68944 7.62451 7.94585 7.88093 7.94585 8.19719C7.94585 8.51345 7.68944 8.76986 7.37318 8.76986Z" fill="#E8F8FC"/>
<path d="M7.37311 12.349H2.72013C2.40388 12.349 2.14746 12.0925 2.14746 11.7763C2.14746 11.46 2.40388 11.2036 2.72013 11.2036H7.37311C7.68937 11.2036 7.94578 11.46 7.94578 11.7763C7.94578 12.0925 7.68937 12.349 7.37311 12.349Z" fill="#E8F8FC"/>
<path d="M7.65943 15.9281H5.24919C4.93293 15.9281 4.67651 15.6716 4.67651 15.3554C4.67651 15.0391 4.93293 14.7827 5.24919 14.7827H7.65943C7.97569 14.7827 8.2321 15.0391 8.2321 15.3554C8.2321 15.6716 7.97569 15.9281 7.65943 15.9281Z" fill="#E8F8FC"/>
<path d="M2.19546 15.9281H1.28849C0.972235 15.9281 0.71582 15.6716 0.71582 15.3554C0.71582 15.0391 0.972235 14.7827 1.28849 14.7827H2.19546C2.51172 14.7827 2.76814 15.0391 2.76814 15.3554C2.76814 15.6716 2.51172 15.9281 2.19546 15.9281Z" fill="#E8F8FC"/>
<path d="M4.43822 19.5076H0.572674C0.256415 19.5076 0 19.2512 0 18.935C0 18.6187 0.256415 18.3623 0.572674 18.3623H4.43822C4.75448 18.3623 5.0109 18.6187 5.0109 18.935C5.0109 19.2512 4.75448 19.5076 4.43822 19.5076Z" fill="#E8F8FC"/>
<path d="M9.09117 19.5076H7.44474C7.12848 19.5076 6.87207 19.2512 6.87207 18.935C6.87207 18.6187 7.12848 18.3623 7.44474 18.3623H9.09117C9.40743 18.3623 9.66384 18.6187 9.66384 18.935C9.66384 19.2512 9.40743 19.5076 9.09117 19.5076Z" fill="#E8F8FC"/>
<path d="M10.8091 12.349H9.95012C9.63386 12.349 9.37744 12.0925 9.37744 11.7763C9.37744 11.46 9.63386 11.2036 9.95012 11.2036H10.8091C11.1254 11.2036 11.3818 11.46 11.3818 11.7763C11.3818 12.0925 11.1254 12.349 10.8091 12.349Z" fill="#E8F8FC"/>
<path d="M31.9587 17.9326C31.943 17.9326 26.9115 17.9327 26.8959 17.9325C26.2511 17.9253 26.1242 17.0103 26.7402 16.8196C27.7825 16.497 28.6155 15.8165 29.1621 14.9105C29.3749 14.5578 29.884 14.5485 30.1162 14.8888C31.7057 17.2181 31.8458 17.3222 31.9587 17.9326Z" fill="#D6F4FC"/>
<path d="M21.6899 13.1367H22.8532V24.0175H21.6899V13.1367Z" fill="#E84857"/>
<path d="M28.3745 22.5881C27.0218 22.7143 25.8993 23.8372 25.7731 25.1897C25.7213 25.7446 24.9926 25.9215 24.7156 25.4379C24.448 24.9707 24.3083 24.4209 24.3442 23.8364C24.4725 21.7499 26.7743 20.4722 28.6226 21.5306C29.1062 21.8075 28.9292 22.5363 28.3745 22.5881Z" fill="#585966"/>
<path d="M11.1943 22.5881C9.84162 22.7143 8.71911 23.8372 8.59291 25.1897C8.54115 25.7446 7.81242 25.9215 7.53539 25.4379C7.26781 24.9707 7.12808 24.4209 7.16401 23.8364C7.29229 21.7499 9.59415 20.4722 11.4424 21.5306C11.926 21.8075 11.7491 22.5363 11.1943 22.5881Z" fill="#585966"/>
</g>
<defs>
<clipPath id="clip0_771_5979">
<rect width="32" height="32" fill="white"/>
</clipPath>
</defs>
</svg>
