<svg width="20" height="20" viewBox="0 0 20 20" fill="none" xmlns="http://www.w3.org/2000/svg">
<path d="M14.3662 0.744629C14.2379 0.744629 14.1103 0.749043 13.9839 0.75752L10.004 19.2533C10.233 19.1201 19.9988 13.3861 20 6.37923C20 3.26779 17.4777 0.744629 14.3662 0.744629Z" fill="#E0230D"/>
<path d="M13.9839 0.75752C16.4451 0.953887 18.3904 3.39615 18.3904 6.37923C18.3891 13.3788 10.2121 19.1084 10.004 19.2533C10.0012 19.2549 10 19.2557 10 19.2557C10 19.2557 0 13.469 0 6.37845C0 3.26697 2.52234 0.744629 5.63379 0.744629C7.39477 0.744629 8.96699 1.55268 10 2.81826C10.9577 1.64482 12.3787 0.86498 13.9839 0.75752Z" fill="#FF5440"/>
</svg>
