<svg width="32" height="32" viewBox="0 0 32 32" fill="none" xmlns="http://www.w3.org/2000/svg">
<path d="M31.0259 18.0933C27.6641 12.9458 28.0215 7.66933 26.401 5.18844C24.7806 2.70755 19.9513 -1.56978 8.54059 5.88355C-2.87008 13.3369 0.0321455 21.4391 1.81526 24.1671C10.1601 36.9422 36.9806 27.2098 31.0259 18.0933Z" fill="#EBEBEB"/>
<path d="M26.5018 29.1742C25.7667 29.1742 25.1685 28.576 25.1685 27.8409C25.1685 27.1058 25.7667 26.5076 26.5018 26.5076C27.2369 26.5076 27.8351 27.1058 27.8351 27.8409C27.8351 28.576 27.2369 29.1742 26.5018 29.1742ZM26.5018 27.3965C26.2565 27.3965 26.0573 27.5956 26.0573 27.8409C26.0573 28.0862 26.2565 28.2853 26.5018 28.2853C26.7471 28.2853 26.9462 28.0862 26.9462 27.8409C26.9462 27.5956 26.7471 27.3965 26.5018 27.3965Z" fill="#A4AFC1"/>
<path d="M7.53809 7.69714L8.79516 6.44006L9.4237 7.0686L8.16663 8.32568L7.53809 7.69714Z" fill="#A4AFC1"/>
<path d="M3.92383 11.3098L5.18091 10.0527L5.80945 10.6813L4.55237 11.9384L3.92383 11.3098Z" fill="#A4AFC1"/>
<path d="M3.92529 6.90979L4.55383 6.28125L5.81091 7.53833L5.18237 8.16687L3.92529 6.90979Z" fill="#A4AFC1"/>
<path d="M23.3336 10.8889H21.1113V8.66667L23.778 6V8.22222H26.0002L23.3336 10.8889Z" fill="#60130C"/>
<path d="M22.4444 17.7778C22.4444 18.8773 22.2284 19.9253 21.8373 20.8844C21.5893 21.4924 21.2702 22.064 20.8907 22.5893C19.3973 24.656 16.9671 26 14.2222 26C9.68089 26 6 22.3191 6 17.7778C6 13.2364 9.68089 9.55554 14.2222 9.55554C18.7636 9.55554 22.4444 13.2364 22.4444 17.7778Z" fill="#60130C"/>
<path d="M14.2224 22.8888C17.0452 22.8888 19.3335 20.6005 19.3335 17.7777C19.3335 14.9549 17.0452 12.6666 14.2224 12.6666C11.3997 12.6666 9.11133 14.9549 9.11133 17.7777C9.11133 20.6005 11.3997 22.8888 14.2224 22.8888Z" fill="#EBCE6D"/>
<path d="M14.2222 19.7778C15.3267 19.7778 16.2222 18.8824 16.2222 17.7778C16.2222 16.6733 15.3267 15.7778 14.2222 15.7778C13.1176 15.7778 12.2222 16.6733 12.2222 17.7778C12.2222 18.8824 13.1176 19.7778 14.2222 19.7778Z" fill="#60130C"/>
<path d="M14.2222 17.7777L20.8888 11.1111L14.2222 17.7777Z" fill="#60130C"/>
<path d="M7.77778 17.7778C7.77778 13.5369 10.9884 10.0489 15.1111 9.60532C14.8187 9.57421 14.5227 9.55554 14.2222 9.55554C9.68089 9.55554 6 13.2364 6 17.7778C6 22.3191 9.68089 26 14.2222 26C14.5227 26 14.8187 25.9813 15.1111 25.9502C10.9884 25.5067 7.77778 22.0187 7.77778 17.7778Z" fill="#570C10"/>
<path d="M10.8891 17.7777C10.8891 15.2586 12.7131 13.1706 15.1113 12.7493C14.8224 12.6986 14.5264 12.6666 14.2224 12.6666C11.3993 12.6666 9.11133 14.9546 9.11133 17.7777C9.11133 20.6008 11.3993 22.8888 14.2224 22.8888C14.5264 22.8888 14.8224 22.8577 15.1113 22.8062C12.7131 22.3848 10.8891 20.2968 10.8891 17.7777Z" fill="#D5DBE1"/>
<path d="M13.9999 17.7778C13.9999 16.9947 14.4551 16.3227 15.1111 15.9947C14.8426 15.8605 14.5431 15.7778 14.2222 15.7778C13.1173 15.7778 12.2222 16.6729 12.2222 17.7778C12.2222 18.8827 13.1173 19.7778 14.2222 19.7778C14.5431 19.7778 14.8426 19.6952 15.1111 19.5609C14.4551 19.2329 13.9999 18.5609 13.9999 17.7778Z" fill="#570C10"/>
<path d="M23.778 6L21.1113 8.66667V10.8889L23.778 8.22222V6Z" fill="#570C10"/>
<path d="M23.3337 11.5555H21.1115C20.7435 11.5555 20.4448 11.2569 20.4448 10.8889V8.66665C20.4448 8.48976 20.515 8.31999 20.6404 8.19554L23.3071 5.52888C23.4982 5.33776 23.7853 5.28088 24.0333 5.38399C24.2822 5.4871 24.4448 5.73065 24.4448 5.99999V7.55554H26.0004C26.2697 7.55554 26.5133 7.71821 26.6164 7.9671C26.7195 8.21599 26.6626 8.5031 26.4715 8.69332L23.8048 11.36C23.6804 11.4853 23.5106 11.5555 23.3337 11.5555ZM21.7782 10.2222H23.0573L24.3906 8.88888H23.7782C23.4102 8.88888 23.1115 8.59021 23.1115 8.22221V7.60976L21.7782 8.9431V10.2222Z" fill="black"/>
<path d="M14.2224 26.6667C9.32105 26.6667 5.3335 22.6791 5.3335 17.7778C5.3335 12.8765 9.32105 8.88892 14.2224 8.88892C19.1237 8.88892 23.1113 12.8765 23.1113 17.7778C23.1113 18.6383 22.9886 19.4889 22.7459 20.3067L21.4677 19.928C21.6739 19.2329 21.7779 18.5094 21.7779 17.7778C21.7779 13.6116 18.3886 10.2222 14.2224 10.2222C10.0562 10.2222 6.66683 13.6116 6.66683 17.7778C6.66683 21.944 10.0562 25.3334 14.2224 25.3334C17.1708 25.3334 19.8695 23.6 21.0962 20.9183L22.3086 21.4729C20.8651 24.6285 17.6908 26.6667 14.2224 26.6667Z" fill="black"/>
<path d="M14.2226 23.5556C11.0368 23.5556 8.44482 20.9636 8.44482 17.7778C8.44482 14.592 11.0368 12 14.2226 12C17.4084 12 20.0004 14.592 20.0004 17.7778C20.0004 20.9636 17.4084 23.5556 14.2226 23.5556ZM14.2226 13.3333C11.7719 13.3333 9.77816 15.3271 9.77816 17.7778C9.77816 20.2284 11.7719 22.2222 14.2226 22.2222C16.6733 22.2222 18.667 20.2284 18.667 17.7778C18.667 15.3271 16.6733 13.3333 14.2226 13.3333Z" fill="black"/>
<path d="M14.2223 20.4444C12.7521 20.4444 11.5557 19.248 11.5557 17.7777C11.5557 16.3075 12.7521 15.1111 14.2223 15.1111C15.6926 15.1111 16.889 16.3075 16.889 17.7777C16.889 19.248 15.6926 20.4444 14.2223 20.4444ZM14.2223 16.4444C13.4872 16.4444 12.889 17.0426 12.889 17.7777C12.889 18.5129 13.4872 19.1111 14.2223 19.1111C14.9574 19.1111 15.5557 18.5129 15.5557 17.7777C15.5557 17.0426 14.9574 16.4444 14.2223 16.4444Z" fill="black"/>
<path d="M14.2226 18.4444C14.0519 18.4444 13.8813 18.3795 13.7515 18.2488C13.491 17.9884 13.491 17.5662 13.7515 17.3057L20.4181 10.6391C20.6786 10.3786 21.1008 10.3786 21.3613 10.6391C21.6217 10.8995 21.6217 11.3217 21.3613 11.5822L14.6946 18.2488C14.5639 18.3795 14.3933 18.4444 14.2226 18.4444Z" fill="black"/>
</svg>
