<svg width="48" height="48" viewBox="0 0 48 48" fill="none" xmlns="http://www.w3.org/2000/svg">
<path d="M19.1719 42.9943V47.8557L17.9963 46.9061C17.8147 46.7593 13.493 43.2506 9.1106 38.2192C3.06519 31.2784 0 25.0481 0 19.7018V19.1719C0 8.60046 8.60046 0 19.1719 0C29.7433 0 38.3438 8.60046 38.3438 19.1719V19.7018C38.3438 20.1508 38.3199 20.6067 38.2767 21.0681L34.5275 17.6477C33.7595 9.85181 27.1663 3.74084 19.1719 3.74084C10.6633 3.74084 3.74084 10.6633 3.74084 19.1719V19.7018C3.74084 28.7362 15.3812 39.6731 19.1719 42.9943V42.9943ZM30.6749 40.3074H36.286V34.6963H30.6749V40.3074ZM19.1719 11.2225C23.5551 11.2225 27.1212 14.7887 27.1212 19.1719C27.1212 23.5551 23.5551 27.1212 19.1719 27.1212C14.7887 27.1212 11.2225 23.5551 11.2225 19.1719C11.2225 14.7887 14.7887 11.2225 19.1719 11.2225ZM19.1719 14.9634C16.8512 14.9634 14.9634 16.8512 14.9634 19.1719C14.9634 21.4922 16.8512 23.3804 19.1719 23.3804C21.4922 23.3804 23.3804 21.4922 23.3804 19.1719C23.3804 16.8512 21.4922 14.9634 19.1719 14.9634ZM45.479 37.7655L44.4272 36.806V42.8115C44.4272 45.6079 42.152 47.8828 39.3556 47.8828H27.512C24.7156 47.8828 22.4403 45.6079 22.4403 42.8115V36.806L21.3885 37.7655L18.8676 35.0021L33.4336 21.7134L48 35.0021L45.479 37.7655ZM40.6864 33.3933L33.4336 26.777L26.1812 33.3933V42.8112C26.1812 43.545 26.7781 44.142 27.512 44.142H39.3556C40.0895 44.142 40.6864 43.545 40.6864 42.8112V33.3933Z" fill="#681D1D"/>
</svg>
