<svg width="20" height="20" viewBox="0 0 20 20" fill="none" xmlns="http://www.w3.org/2000/svg">
<path d="M17.9167 3.3335H10C9.95528 3.3335 9.91086 3.34053 9.86832 3.35432L9.76832 3.38764C9.54996 3.46029 9.43184 3.69619 9.50449 3.91451C9.50492 3.91584 9.50539 3.91713 9.50582 3.91846L13.6941 16.1576L10.9358 19.3093C10.7844 19.4826 10.8021 19.7458 10.9754 19.8972C11.0514 19.9637 11.149 20.0002 11.25 20.0001H17.9166C19.0673 20.0002 20 19.0674 20 17.9168V5.41685C20 4.26623 19.0673 3.3335 17.9167 3.3335Z" fill="#ECEFF1"/>
<path d="M14.5458 16.0777C14.4782 15.929 14.33 15.8335 14.1666 15.8335H10C9.76988 15.8335 9.58332 16.0201 9.58332 16.2502C9.58332 16.3003 9.59234 16.3499 9.61 16.3969L10.86 19.7302C10.9116 19.8674 11.0316 19.9674 11.1758 19.9935C11.2003 19.9977 11.2251 19.9999 11.25 20.0002C11.3701 20.0001 11.4843 19.9481 11.5633 19.8577L14.48 16.5244C14.5877 16.4013 14.6134 16.2266 14.5458 16.0777Z" fill="#1976D2"/>
<path d="M17.9167 9.16686H12.0833C11.8532 9.16686 11.6666 8.98029 11.6666 8.75018C11.6666 8.52006 11.8532 8.3335 12.0833 8.3335H17.9166C18.1468 8.3335 18.3333 8.52006 18.3333 8.75018C18.3333 8.98029 18.1468 9.16686 17.9167 9.16686Z" fill="#455A64"/>
<path d="M14.5833 9.16668C14.3532 9.16668 14.1666 8.98012 14.1666 8.75V7.91668C14.1666 7.68656 14.3532 7.5 14.5833 7.5C14.8134 7.5 15 7.68656 15 7.91668V8.75C15 8.98012 14.8134 9.16668 14.5833 9.16668Z" fill="#455A64"/>
<path d="M13.3333 14.1669C13.1032 14.1667 12.9168 13.9799 12.917 13.7498C12.9171 13.6153 12.9822 13.4892 13.0917 13.411C14.9167 12.1144 16.25 9.471 16.25 8.75018C16.25 8.52006 16.4366 8.3335 16.6667 8.3335C16.8968 8.3335 17.0834 8.52006 17.0834 8.75018C17.0834 9.8485 15.4775 12.7385 13.575 14.0894C13.5045 14.1397 13.42 14.1668 13.3333 14.1669Z" fill="#455A64"/>
<path d="M16.6667 15.0002C16.5624 15.0003 16.4619 14.9613 16.385 14.891C16.0833 14.6143 13.42 12.1543 12.9475 10.9902C12.8607 10.7768 12.9634 10.5336 13.1767 10.4468C13.39 10.3601 13.6332 10.4627 13.72 10.676C14.0608 11.516 16.1667 13.5593 16.9492 14.2752C17.1194 14.43 17.132 14.6935 16.9773 14.8638C16.8978 14.9512 16.7848 15.0008 16.6667 15.0002Z" fill="#455A64"/>
<path d="M14.5608 16.115L9.14418 0.28168C9.08648 0.113203 8.92809 0 8.75 0H2.08332C0.932734 0 0 0.932734 0 2.08332V14.5833C0 15.7339 0.932734 16.6666 2.08332 16.6666H14.1666C14.3968 16.6666 14.5833 16.4801 14.5833 16.25C14.5833 16.2041 14.5757 16.1584 14.5608 16.115Z" fill="#2196F3"/>
<path d="M7.91668 11.6667C7.74051 11.6668 7.58336 11.556 7.52418 11.3901L5.83336 6.65506L4.14254 11.3901C4.05649 11.6035 3.81371 11.7067 3.60027 11.6207C3.39891 11.5395 3.29363 11.3173 3.35836 11.1101L5.44168 5.27674C5.5436 5.06022 5.80176 4.96729 6.01828 5.06916C6.10949 5.11209 6.18289 5.18549 6.22586 5.27674L8.30918 11.1101C8.38676 11.3261 8.27496 11.5642 8.05918 11.6426C8.0134 11.6588 7.9652 11.6669 7.91668 11.6667Z" fill="#FAFAFA"/>
<path d="M6.66668 9.16686H5C4.76988 9.16686 4.58332 8.98029 4.58332 8.75018C4.58332 8.52006 4.76988 8.3335 5 8.3335H6.66668C6.8968 8.3335 7.08336 8.52006 7.08336 8.75018C7.08332 8.98029 6.8968 9.16686 6.66668 9.16686Z" fill="#FAFAFA"/>
</svg>
