<svg width="20" height="20" viewBox="0 0 20 20" fill="none" xmlns="http://www.w3.org/2000/svg">
<g clip-path="url(#clip0_780_3641)">
<path d="M10 15.75C13.1756 15.75 15.75 13.1756 15.75 9.99999C15.75 6.82436 13.1756 4.25 10 4.25C6.82436 4.25 4.25 6.82436 4.25 9.99999C4.25 13.1756 6.82436 15.75 10 15.75Z" fill="#FCD462"/>
<path d="M12.725 4.9248C12.975 5.72479 13.15 6.57479 13.175 7.44982C13.325 10.9248 10.975 13.9998 7.92501 15.3498C8.575 15.5999 9.27501 15.7499 10 15.7499C13.175 15.7499 15.75 13.1749 15.75 9.99986C15.75 7.79978 14.525 5.89977 12.725 4.9248Z" fill="#F6C358"/>
<path d="M9.99999 0C9.52498 0 9.15 0.374988 9.15 0.850001V2.25001C9.15 2.72503 9.52498 3.10001 9.99999 3.10001C10.475 3.10001 10.85 2.72503 10.85 2.25001V0.850001C10.85 0.374988 10.475 0 9.99999 0Z" fill="#F6C358"/>
<path d="M9.99999 16.8999C9.52498 16.8999 9.15 17.2749 9.15 17.7499V19.1499C9.15 19.6249 9.52498 19.9999 9.99999 19.9999C10.475 19.9999 10.85 19.6249 10.85 19.1499V17.7499C10.85 17.2749 10.475 16.8999 9.99999 16.8999Z" fill="#F6C358"/>
<path d="M20 9.9999C20 9.52489 19.625 9.1499 19.15 9.1499H17.75C17.275 9.1499 16.9 9.52489 16.9 9.9999C16.9 10.4749 17.275 10.8499 17.75 10.8499H19.15C19.625 10.8499 20 10.4749 20 9.9999Z" fill="#F6C358"/>
<path d="M3.10001 9.9999C3.10001 9.52489 2.72503 9.1499 2.25001 9.1499H0.850001C0.374988 9.1499 0 9.52489 0 9.9999C0 10.4749 0.374988 10.8499 0.850001 10.8499H2.25001C2.72498 10.8499 3.10001 10.4749 3.10001 9.9999Z" fill="#F6C358"/>
<path d="M17.075 2.92492C16.75 2.5999 16.2 2.5999 15.875 2.92492L14.875 3.92491C14.55 4.24993 14.55 4.7999 14.875 5.12491C15.2 5.44993 15.75 5.44993 16.075 5.12491L17.075 4.12492C17.4 3.79994 17.4 3.24993 17.075 2.92492Z" fill="#F6C358"/>
<path d="M5.12499 14.8751C4.79997 14.5501 4.25 14.5501 3.92498 14.8751L2.92499 15.8751C2.59997 16.2001 2.59997 16.7501 2.92499 17.0751C3.25001 17.4001 3.79997 17.4001 4.12499 17.0751L5.12499 16.0751C5.45 15.7501 5.45 15.2251 5.12499 14.8751Z" fill="#F6C358"/>
<path d="M17.075 17.0751C17.4 16.7501 17.4 16.2001 17.075 15.8751L16.075 14.8751C15.75 14.5501 15.2 14.5501 14.875 14.8751C14.55 15.2001 14.55 15.7501 14.875 16.0751L15.875 17.0751C16.2 17.4001 16.75 17.4001 17.075 17.0751Z" fill="#F6C358"/>
<path d="M5.12499 5.12491C5.45 4.7999 5.45 4.24993 5.12499 3.92491L4.12499 2.92492C3.79997 2.5999 3.25001 2.5999 2.92499 2.92492C2.59997 3.24993 2.59997 3.7999 2.92499 4.12492L3.92498 5.12491C4.25 5.44993 4.77498 5.44993 5.12499 5.12491Z" fill="#F6C358"/>
</g>
<defs>
<clipPath id="clip0_780_3641">
<rect width="20" height="20" fill="white"/>
</clipPath>
</defs>
</svg>
