<svg width="48" height="48" viewBox="0 0 48 48" fill="none" xmlns="http://www.w3.org/2000/svg">
<path fill-rule="evenodd" clip-rule="evenodd" d="M24 0C10.7625 0 0 10.7625 0 24C0 37.2375 10.7625 48 24 48C37.2375 48 48 37.2375 48 24C48 10.7625 37.2375 0 24 0Z" fill="#F44336"/>
<path fill-rule="evenodd" clip-rule="evenodd" d="M34.3125 25.7344C34.3125 31.425 29.6812 36.0469 24 36.0469C18.3094 36.0469 13.6875 31.4156 13.6875 25.7344C13.6875 22.2281 15.4406 18.9938 18.3844 17.0906C19.0781 16.6406 20.0062 16.8375 20.4562 17.5312C20.9062 18.225 20.7094 19.1531 20.0156 19.6031C17.925 20.9531 16.6875 23.25 16.6875 25.7344C16.6875 29.7656 19.9688 33.0469 24 33.0469C28.0312 33.0469 31.3125 29.7656 31.3125 25.7344C31.3125 23.25 30.0656 20.9531 27.9844 19.6031C27.2906 19.1531 27.0937 18.225 27.5437 17.5312C27.9937 16.8375 28.9219 16.6406 29.6156 17.0906C32.5594 18.9938 34.3125 22.2281 34.3125 25.7344ZM22.5 20.3812V13.4531C22.5 12.6281 23.175 11.9531 24 11.9531C24.825 11.9531 25.5 12.6281 25.5 13.4531V20.3812C25.5 21.2062 24.825 21.8812 24 21.8812C23.175 21.8812 22.5 21.2062 22.5 20.3812Z" fill="white"/>
</svg>
