<svg width="20" height="20" viewBox="0 0 20 20" fill="none" xmlns="http://www.w3.org/2000/svg">
<path d="M10 20C15.5228 20 20 15.5228 20 10C20 4.47715 15.5228 0 10 0C4.47715 0 0 4.47715 0 10C0 15.5228 4.47715 20 10 20Z" fill="#F44336"/>
<path fill-rule="evenodd" clip-rule="evenodd" d="M10.6902 14.7163V15.349C10.6902 15.8563 10.4373 16.2943 9.99789 16.548C9.78649 16.67 9.55055 16.7381 9.3059 16.7382C9.06102 16.7384 8.82516 16.6701 8.6136 16.548L5.80043 14.9238C5.36097 14.6701 5.10816 14.2322 5.10816 13.7248V5.4275C5.10816 4.66402 5.72922 4.04297 6.49269 4.04297H12.6884C13.4519 4.04297 14.073 4.66395 14.073 5.4275V7.17652C14.073 7.42742 13.8693 7.63117 13.6184 7.63117C13.3674 7.63117 13.1638 7.42746 13.1638 7.17652V5.4275C13.1638 5.16531 12.9505 4.95203 12.6883 4.95203H7.25934L9.99789 6.5334C10.4372 6.78703 10.6902 7.22496 10.6902 7.73219V13.8072H12.6884C12.9505 13.8072 13.1639 13.594 13.1639 13.3318V11.7986C13.1639 11.5475 13.3673 11.344 13.6184 11.344C13.8694 11.344 14.073 11.5476 14.073 11.7986V13.3318C14.073 14.0953 13.4519 14.7164 12.6884 14.7164H10.6902V14.7163ZM14.9025 9.83414L14.4019 10.3348C14.2244 10.5123 14.2244 10.8 14.4019 10.9776C14.4874 11.0631 14.6025 11.1106 14.7233 11.1106C14.8443 11.1106 14.9593 11.0632 15.0449 10.9776L16.3213 9.70089C16.4988 9.52343 16.4988 9.23578 16.3213 9.05832L15.0449 7.78187C14.8673 7.60433 14.5795 7.60441 14.4019 7.78183C14.2245 7.95918 14.2245 8.24707 14.4019 8.42445L14.9025 8.92496H11.5487C11.2975 8.92496 11.0941 9.12847 11.0941 9.37961C11.0941 9.63074 11.2975 9.83414 11.5487 9.83414H14.9025Z" fill="white"/>
</svg>
