<?xml version="1.0" encoding="UTF-8"?>
<svg xmlns="http://www.w3.org/2000/svg" xmlns:xlink="http://www.w3.org/1999/xlink" width="20px" height="20px" viewBox="0 0 20 20" version="1.1">
<g id="surface1">
<path style=" stroke:none;fill-rule:nonzero;fill:rgb(33.72549%,3.137255%,43.921569%);fill-opacity:1;" d="M 10 3.976562 C 8.808594 3.976562 7.644531 4.328125 6.652344 4.992188 C 5.660156 5.652344 4.890625 6.59375 4.433594 7.695312 C 3.976562 8.796875 3.859375 10.007812 4.089844 11.175781 C 4.324219 12.34375 4.898438 13.417969 5.738281 14.261719 C 6.582031 15.101562 7.65625 15.675781 8.824219 15.910156 C 9.992188 16.140625 11.203125 16.023438 12.304688 15.566406 C 13.40625 15.109375 14.347656 14.339844 15.007812 13.347656 C 15.671875 12.355469 16.023438 11.191406 16.023438 10 C 16.023438 8.402344 15.386719 6.871094 14.257812 5.742188 C 13.128906 4.613281 11.597656 3.976562 10 3.976562 Z M 10 3.976562 "/>
<path style=" stroke:none;fill-rule:nonzero;fill:rgb(41.176471%,5.098039%,52.941176%);fill-opacity:1;" d="M 10 2.902344 C 10.082031 2.902344 10.164062 2.871094 10.222656 2.8125 C 10.28125 2.753906 10.3125 2.671875 10.3125 2.589844 L 10.3125 1.25 C 10.3125 1.167969 10.28125 1.085938 10.222656 1.027344 C 10.164062 0.96875 10.082031 0.9375 10 0.9375 C 9.917969 0.9375 9.835938 0.96875 9.777344 1.027344 C 9.71875 1.085938 9.6875 1.167969 9.6875 1.25 L 9.6875 2.589844 C 9.6875 2.671875 9.71875 2.753906 9.777344 2.8125 C 9.835938 2.871094 9.917969 2.902344 10 2.902344 Z M 10 2.902344 "/>
<path style=" stroke:none;fill-rule:nonzero;fill:rgb(26.27451%,3.137255%,34.117647%);fill-opacity:1;" d="M 15.964844 3.589844 L 15.027344 4.527344 C 15 4.558594 14.976562 4.589844 14.960938 4.628906 C 14.945312 4.667969 14.9375 4.707031 14.9375 4.75 C 14.9375 4.792969 14.945312 4.832031 14.960938 4.871094 C 14.976562 4.910156 15 4.941406 15.027344 4.972656 C 15.058594 5 15.09375 5.023438 15.128906 5.039062 C 15.167969 5.054688 15.207031 5.0625 15.25 5.0625 C 15.292969 5.0625 15.332031 5.054688 15.371094 5.039062 C 15.40625 5.023438 15.441406 5 15.472656 4.972656 L 16.410156 4.035156 C 16.46875 3.976562 16.5 3.894531 16.5 3.8125 C 16.5 3.730469 16.46875 3.648438 16.410156 3.589844 C 16.351562 3.53125 16.269531 3.5 16.1875 3.5 C 16.105469 3.5 16.023438 3.53125 15.964844 3.589844 Z M 15.964844 3.589844 "/>
<path style=" stroke:none;fill-rule:nonzero;fill:rgb(17.254902%,2.352941%,21.960784%);fill-opacity:1;" d="M 18.75 9.6875 L 17.410156 9.6875 C 17.328125 9.6875 17.246094 9.71875 17.1875 9.777344 C 17.128906 9.835938 17.097656 9.917969 17.097656 10 C 17.097656 10.082031 17.128906 10.164062 17.1875 10.222656 C 17.246094 10.28125 17.328125 10.3125 17.410156 10.3125 L 18.75 10.3125 C 18.832031 10.3125 18.914062 10.28125 18.972656 10.222656 C 19.03125 10.164062 19.0625 10.082031 19.0625 10 C 19.0625 9.917969 19.03125 9.835938 18.972656 9.777344 C 18.914062 9.71875 18.832031 9.6875 18.75 9.6875 Z M 18.75 9.6875 "/>
<path style=" stroke:none;fill-rule:nonzero;fill:rgb(16.862745%,1.960784%,21.960784%);fill-opacity:1;" d="M 15.460938 15.019531 C 15.433594 14.988281 15.398438 14.964844 15.359375 14.949219 C 15.324219 14.933594 15.28125 14.925781 15.242188 14.925781 C 15.199219 14.925781 15.160156 14.933594 15.121094 14.949219 C 15.082031 14.964844 15.046875 14.988281 15.019531 15.019531 C 14.988281 15.046875 14.964844 15.082031 14.949219 15.121094 C 14.933594 15.160156 14.925781 15.199219 14.925781 15.242188 C 14.925781 15.28125 14.933594 15.324219 14.949219 15.359375 C 14.964844 15.398438 14.988281 15.433594 15.019531 15.460938 L 15.957031 16.398438 C 15.984375 16.429688 16.019531 16.453125 16.058594 16.46875 C 16.097656 16.484375 16.136719 16.492188 16.179688 16.492188 C 16.21875 16.492188 16.261719 16.484375 16.296875 16.46875 C 16.335938 16.453125 16.371094 16.429688 16.398438 16.398438 C 16.429688 16.371094 16.453125 16.335938 16.46875 16.296875 C 16.484375 16.261719 16.492188 16.21875 16.492188 16.179688 C 16.492188 16.136719 16.484375 16.097656 16.46875 16.058594 C 16.453125 16.019531 16.429688 15.984375 16.398438 15.957031 Z M 15.460938 15.019531 "/>
<path style=" stroke:none;fill-rule:nonzero;fill:rgb(16.862745%,1.568627%,21.960784%);fill-opacity:1;" d="M 4.035156 3.589844 C 3.976562 3.53125 3.894531 3.5 3.8125 3.5 C 3.730469 3.5 3.648438 3.53125 3.589844 3.589844 C 3.53125 3.648438 3.5 3.730469 3.5 3.8125 C 3.5 3.894531 3.53125 3.976562 3.589844 4.035156 L 4.527344 4.972656 C 4.558594 5 4.59375 5.023438 4.628906 5.039062 C 4.667969 5.054688 4.707031 5.0625 4.75 5.0625 C 4.792969 5.0625 4.832031 5.054688 4.871094 5.039062 C 4.90625 5.023438 4.941406 5 4.972656 4.972656 C 5 4.941406 5.023438 4.910156 5.039062 4.871094 C 5.054688 4.832031 5.0625 4.792969 5.0625 4.75 C 5.0625 4.707031 5.054688 4.667969 5.039062 4.628906 C 5.023438 4.589844 5 4.558594 4.972656 4.527344 Z M 4.035156 3.589844 "/>
<path style=" stroke:none;fill-rule:nonzero;fill:rgb(27.843137%,2.745098%,36.078431%);fill-opacity:1;" d="M 2.589844 9.6875 L 1.25 9.6875 C 1.167969 9.6875 1.085938 9.71875 1.027344 9.777344 C 0.96875 9.835938 0.9375 9.917969 0.9375 10 C 0.9375 10.082031 0.96875 10.164062 1.027344 10.222656 C 1.085938 10.28125 1.167969 10.3125 1.25 10.3125 L 2.589844 10.3125 C 2.671875 10.3125 2.753906 10.28125 2.8125 10.222656 C 2.871094 10.164062 2.902344 10.082031 2.902344 10 C 2.902344 9.917969 2.871094 9.835938 2.8125 9.777344 C 2.753906 9.71875 2.671875 9.6875 2.589844 9.6875 Z M 2.589844 9.6875 "/>
<path style=" stroke:none;fill-rule:nonzero;fill:rgb(29.411765%,3.137255%,38.039216%);fill-opacity:1;" d="M 4.539062 15.019531 L 3.601562 15.957031 C 3.570312 15.984375 3.546875 16.019531 3.53125 16.058594 C 3.515625 16.097656 3.507812 16.136719 3.507812 16.179688 C 3.507812 16.21875 3.515625 16.261719 3.53125 16.296875 C 3.546875 16.335938 3.570312 16.371094 3.601562 16.398438 C 3.628906 16.429688 3.664062 16.453125 3.703125 16.46875 C 3.738281 16.484375 3.78125 16.492188 3.820312 16.492188 C 3.863281 16.492188 3.902344 16.484375 3.941406 16.46875 C 3.980469 16.453125 4.015625 16.429688 4.042969 16.398438 L 4.980469 15.460938 C 5.039062 15.402344 5.074219 15.324219 5.074219 15.242188 C 5.074219 15.15625 5.039062 15.078125 4.980469 15.019531 C 4.921875 14.960938 4.84375 14.925781 4.757812 14.925781 C 4.675781 14.925781 4.597656 14.960938 4.539062 15.019531 Z M 4.539062 15.019531 "/>
<path style=" stroke:none;fill-rule:nonzero;fill:rgb(20%,2.352941%,25.882353%);fill-opacity:1;" d="M 10 17.097656 C 9.917969 17.097656 9.835938 17.128906 9.777344 17.1875 C 9.71875 17.246094 9.6875 17.328125 9.6875 17.410156 L 9.6875 18.75 C 9.6875 18.832031 9.71875 18.914062 9.777344 18.972656 C 9.835938 19.03125 9.917969 19.0625 10 19.0625 C 10.082031 19.0625 10.164062 19.03125 10.222656 18.972656 C 10.28125 18.914062 10.3125 18.832031 10.3125 18.75 L 10.3125 17.410156 C 10.3125 17.328125 10.28125 17.246094 10.222656 17.1875 C 10.164062 17.128906 10.082031 17.097656 10 17.097656 Z M 10 17.097656 "/>
<path style=" stroke:none;fill-rule:nonzero;fill:rgb(30.980392%,3.529412%,40%);fill-opacity:1;" d="M 10.019531 6.125 C 9.976562 6.121094 9.933594 6.128906 9.894531 6.144531 C 9.851562 6.15625 9.816406 6.179688 9.785156 6.210938 C 9.753906 6.238281 9.730469 6.273438 9.714844 6.3125 C 9.695312 6.351562 9.6875 6.394531 9.6875 6.4375 C 9.6875 6.519531 9.71875 6.601562 9.777344 6.660156 C 9.835938 6.71875 9.917969 6.75 10 6.75 C 10.863281 6.75 11.6875 7.09375 12.296875 7.703125 C 12.90625 8.3125 13.25 9.136719 13.25 10 C 13.25 10.082031 13.28125 10.164062 13.339844 10.222656 C 13.398438 10.28125 13.480469 10.3125 13.5625 10.3125 C 13.644531 10.3125 13.726562 10.28125 13.785156 10.222656 C 13.84375 10.164062 13.875 10.082031 13.875 10 C 13.875 8.976562 13.46875 7.996094 12.746094 7.269531 C 12.023438 6.542969 11.042969 6.132812 10.019531 6.125 Z M 10.019531 6.125 "/>
</g>
</svg>
