<svg width="32" height="32" viewBox="0 0 32 32" fill="none" xmlns="http://www.w3.org/2000/svg">
<path d="M8.5 29.5L11.2315 24.0375C11.4624 23.5755 11.8174 23.1869 12.2568 22.9153C12.6962 22.6438 13.2025 22.4999 13.719 22.5C14.4566 22.5 15.1639 22.793 15.6855 23.3145C16.207 23.8361 16.5 24.5434 16.5 25.281V29.5H8.5Z" fill="#006FDB"/>
<path d="M14 26C14.5523 26 15 25.5523 15 25C15 24.4477 14.5523 24 14 24C13.4477 24 13 24.4477 13 25C13 25.5523 13.4477 26 14 26Z" fill="#2B2B37"/>
<path d="M12.365 15C12.4751 15.1907 12.5192 15.4124 12.4904 15.6307C12.4617 15.849 12.3617 16.0517 12.2059 16.2073C12.0502 16.363 11.8475 16.4629 11.6292 16.4915C11.4109 16.5202 11.1892 16.476 10.9986 16.3658C10.808 16.2556 10.659 16.0856 10.5749 15.8821C10.4908 15.6786 10.4761 15.4531 10.5333 15.2404C10.5904 15.0278 10.7162 14.84 10.891 14.7061C11.0658 14.5722 11.2799 14.4998 11.5 14.5C11.6755 14.4999 11.8478 14.5461 11.9997 14.6339C12.1515 14.7217 12.2776 14.848 12.365 15Z" fill="#2B2B37"/>
<path d="M11.9998 9.5C12.3547 9.4995 12.6983 9.62508 12.9692 9.85433C13.2401 10.0836 13.4208 10.4016 13.4791 10.7517C13.5373 11.1018 13.4693 11.4612 13.2872 11.7659C13.1051 12.0705 12.8207 12.3005 12.4848 12.415C12.3293 12.4715 12.1652 12.5003 11.9998 12.5C11.602 12.5 11.2204 12.342 10.9391 12.0606C10.6578 11.7793 10.4998 11.3978 10.4998 11C10.4987 10.8386 10.524 10.6782 10.5748 10.525C10.6894 10.1842 10.9216 9.89526 11.2298 9.71C11.4636 9.5737 11.7292 9.50128 11.9998 9.5Z" fill="#2B2B37"/>
<path d="M23 23.5L23.5 25L19 27L18.5 25.5L23 23.5Z" fill="#EDF4FA"/>
<path d="M12.485 12.415L13.685 15H12.365C12.2547 14.8099 12.0848 14.6614 11.8817 14.5775C11.6785 14.4936 11.4534 14.479 11.241 14.5359C11.0287 14.5928 10.8411 14.7181 10.7071 14.8924C10.5732 15.0666 10.5004 15.2802 10.5 15.5L9.875 15.97C9.44799 16.2901 9.10141 16.7053 8.86275 17.1826C8.62408 17.66 8.49988 18.1863 8.5 18.72C8.49845 18.9279 8.51687 19.1356 8.555 19.34C8.74 20.315 9.445 23.09 11.5 23.5L11.545 23.545C11.424 23.6974 11.3184 23.8616 11.23 24.035L10 26.5C10 26.5 5 24 5 17C5 13 8 10.5 8 10.5H10.5L10.575 10.525C10.5242 10.6782 10.4989 10.8386 10.5 11C10.5 11.3978 10.658 11.7794 10.9393 12.0607C11.2206 12.342 11.6022 12.5 12 12.5C12.1654 12.5003 12.3296 12.4715 12.485 12.415Z" fill="#EDF4FA"/>
<path d="M22.8299 20.6402C22.8827 20.7524 22.8892 20.8808 22.848 20.9978C22.8069 21.1147 22.7213 21.2108 22.6099 21.2652L20.1099 22.4552C20.0552 22.4814 19.9959 22.4964 19.9353 22.4992C19.8747 22.502 19.8142 22.4927 19.7573 22.4717C19.7004 22.4507 19.6483 22.4185 19.6041 22.3771C19.5599 22.3356 19.5245 22.2856 19.4999 22.2302L19.1599 21.4902L22.5099 19.9302L22.8299 20.6402Z" fill="#A8B7D4"/>
<path d="M22.51 19.9302L19.16 21.4902L17 22.5002L16.345 20.8952L23.905 17.4902L24.5 19.0002L22.51 19.9302Z" fill="#006FDB"/>
<path d="M12.015 0.5L13.735 4.21L10.97 5.51L9.25 1.8L12.015 0.5Z" fill="#393D48"/>
<path d="M18.0299 13.4902L19.7499 17.2002L16.9849 18.5002L15.2649 14.7902L18.0299 13.4902Z" fill="#393D48"/>
<path d="M27 31.5H7C7.00095 30.9697 7.21118 30.4612 7.585 30.085C7.84317 29.8309 8.16406 29.6498 8.515 29.56C8.67352 29.5198 8.83646 29.4996 9 29.5H25C25.5304 29.5 26.0391 29.7107 26.4142 30.0858C26.7893 30.4609 27 30.9696 27 31.5Z" fill="#393D48"/>
<path d="M12.485 12.4149C12.8209 12.3005 13.1053 12.0704 13.2874 11.7658C13.4695 11.4612 13.5375 11.1018 13.4793 10.7517C13.421 10.4016 13.2403 10.0835 12.9694 9.85427C12.6984 9.62501 12.3549 9.49944 12 9.49993C11.7293 9.50122 11.4638 9.57364 11.23 9.70993L9.58496 6.15994L10.97 5.50994L13.735 4.20994L15.115 3.56494L19.415 12.8399L18.03 13.4899L15.265 14.7899L13.885 15.4349L13.685 14.9999L12.485 12.4149Z" fill="#006FDB"/>
<path d="M12.419 4.10606C12.1753 4.21053 11.9 4.21391 11.6538 4.11545C11.4076 4.017 11.2105 3.82477 11.106 3.58106L10.1595 1.37256L9.25 1.80006L10.97 5.51006L13.735 4.21006L13.4765 3.65306L12.419 4.10606Z" fill="#2B2B37"/>
<path d="M17.3434 15.0787L18.4999 14.5002L18.0299 13.4902L15.2649 14.7902L16.9849 18.5002L17.6514 18.1867L16.8714 16.3667C16.771 16.1323 16.764 15.8685 16.8517 15.629C16.9395 15.3896 17.1153 15.1928 17.3434 15.0787Z" fill="#2B2B37"/>
<path d="M17.6955 12.2748C16.9774 12.6012 16.1596 12.6316 15.4191 12.3595C14.6787 12.0874 14.0753 11.5346 13.7395 10.8208L11.1895 5.40576L10.9685 5.50976L9.5835 6.15976L11.2285 9.70976C11.4628 9.57321 11.7288 9.50078 12 9.49976C12.3549 9.49927 12.6985 9.62484 12.9694 9.8541C13.2403 10.0834 13.421 10.4014 13.4793 10.7515C13.5375 11.1016 13.4695 11.461 13.2874 11.7656C13.1053 12.0703 12.8209 12.3003 12.485 12.4148L13.685 14.9998L13.885 15.4348L15.265 14.7898L18.03 13.4898L19.415 12.8398L18.9 11.7273L17.6955 12.2748Z" fill="#004080"/>
<path d="M15.5 7.50021C15.4067 7.50072 15.3151 7.47509 15.2355 7.42622C15.156 7.37736 15.0917 7.30721 15.05 7.22371L14.05 5.22371C13.9907 5.10502 13.981 4.96765 14.0231 4.84182C14.0651 4.71598 14.1553 4.61198 14.274 4.55271C14.3927 4.49343 14.5301 4.48373 14.6559 4.52574C14.7818 4.56775 14.8857 4.65802 14.945 4.77671L15.945 6.77671C15.983 6.85277 16.001 6.93726 15.9973 7.02221C15.9935 7.10715 15.9682 7.18974 15.9236 7.26216C15.8791 7.33459 15.8168 7.39446 15.7427 7.43611C15.6686 7.47776 15.5851 7.49982 15.5 7.50021Z" fill="#02B9F2"/>
<path d="M18.4335 20.8146C18.3162 20.8649 18.1842 20.8685 18.0643 20.8247C17.9445 20.7808 17.846 20.6928 17.789 20.5786L17.653 20.3061L16.345 20.8951L17 22.5001L19.16 21.4901L22.51 19.9301L24.5 19.0001L24.2025 18.2456L18.4335 20.8146Z" fill="#004080"/>
<path d="M20.9564 21.0752L22.6804 20.3087L22.5099 19.9302L19.1599 21.4902L19.4999 22.2302C19.5245 22.2856 19.5599 22.3356 19.6041 22.3771C19.6483 22.4185 19.7004 22.4507 19.7573 22.4717C19.8142 22.4927 19.8747 22.502 19.9353 22.4992C19.9959 22.4964 20.0552 22.4814 20.1099 22.4552L20.4194 22.3077C20.3389 22.0723 20.3494 21.8153 20.4488 21.5872C20.5481 21.3592 20.7292 21.1765 20.9564 21.0752Z" fill="#8698BA"/>
<path d="M20.5035 25.7766C20.4397 25.8049 20.3707 25.8196 20.3009 25.8196C20.2311 25.8196 20.1621 25.805 20.0983 25.7768C20.0344 25.7485 19.9772 25.7072 19.9304 25.6555C19.8835 25.6038 19.8479 25.5429 19.826 25.4766L19.6615 24.9831L18.5 25.5001L19 27.0001L23.5 25.0001L23.3385 24.5161L20.5035 25.7766Z" fill="#C1CFE8"/>
<path d="M12 12C12.5523 12 13 11.5523 13 11C13 10.4477 12.5523 10 12 10C11.4477 10 11 10.4477 11 11C11 11.5523 11.4477 12 12 12Z" fill="#8394B2"/>
<path d="M11.5 16C11.7761 16 12 15.7761 12 15.5C12 15.2239 11.7761 15 11.5 15C11.2239 15 11 15.2239 11 15.5C11 15.7761 11.2239 16 11.5 16Z" fill="#8394B2"/>
<path d="M14 25.5C14.2761 25.5 14.5 25.2761 14.5 25C14.5 24.7239 14.2761 24.5 14 24.5C13.7239 24.5 13.5 24.7239 13.5 25C13.5 25.2761 13.7239 25.5 14 25.5Z" fill="#8394B2"/>
<path d="M15.3895 28.5H13.7235C12.1385 28.5 11.0635 27.05 11.6735 25.731L12.7415 23.423C12.8634 23.1772 13.0447 22.9656 13.269 22.8075C13.4933 22.6494 13.7535 22.5497 14.026 22.5175C13.9241 22.5061 13.8216 22.5003 13.719 22.5C13.2025 22.4999 12.6962 22.6438 12.2568 22.9153C11.8174 23.1869 11.4624 23.5755 11.2315 24.0375L8.5 29.5H16.5V27.5C16.4846 27.7796 16.3592 28.0417 16.1511 28.2291C15.943 28.4165 15.6692 28.5139 15.3895 28.5Z" fill="#004080"/>
<path d="M26.3455 30.029C26.2562 30.1729 26.1318 30.2917 25.9838 30.3741C25.8359 30.4565 25.6693 30.4998 25.5 30.5H10.5C10.3674 30.5 10.2402 30.4473 10.1464 30.3536C10.0527 30.2598 10 30.1326 10 30C10 29.8674 10.0527 29.7402 10.1464 29.6465C10.2402 29.5527 10.3674 29.5 10.5 29.5H9C8.83646 29.4996 8.67352 29.5198 8.515 29.56C8.16406 29.6498 7.84317 29.8309 7.585 30.085C7.21118 30.4612 7.00095 30.9697 7 31.5H27C26.9996 31.2227 26.9411 30.9486 26.8284 30.6953C26.7157 30.4419 26.5512 30.215 26.3455 30.029Z" fill="#2B2B37"/>
<path d="M12.485 12.415C12.3296 12.4715 12.1654 12.5003 12 12.5C11.6022 12.5 11.2206 12.342 10.9393 12.0607C10.658 11.7794 10.5 11.3978 10.5 11C10.4989 10.8386 10.5242 10.6782 10.575 10.525L10.5 10.5H8L9.094 12.6885C9.19627 12.8983 9.22227 13.1372 9.16752 13.3642C9.11278 13.5911 8.9807 13.7919 8.794 13.932C8.056 14.5065 7 15.725 7 18C6.98648 19.7815 7.53517 21.5219 8.568 22.9735C8.68777 23.1413 8.75332 23.3417 8.75582 23.5478C8.75832 23.7539 8.69766 23.9559 8.582 24.1265L8.0275 24.959C8.60338 25.5694 9.26843 26.0889 10 26.5L11.23 24.035C11.3184 23.8616 11.424 23.6974 11.545 23.545L11.5 23.5C9.445 23.09 8.74 20.315 8.555 19.34C8.51687 19.1356 8.49846 18.9279 8.5 18.72C8.49988 18.1863 8.62408 17.66 8.86275 17.1826C9.10141 16.7053 9.44799 16.2901 9.875 15.97L10.5 15.5C10.5004 15.2802 10.5732 15.0666 10.7071 14.8924C10.8411 14.7181 11.0287 14.5928 11.241 14.5359C11.4534 14.479 11.6785 14.4936 11.8817 14.5775C12.0848 14.6614 12.2547 14.8099 12.365 15H13.685L12.485 12.415Z" fill="#C1CFE8"/>
<path d="M24.9565 17.0192C24.9019 16.8985 24.8017 16.8043 24.6777 16.7574C24.5538 16.7106 24.4163 16.7148 24.2955 16.7692L14.7955 21.0462C14.7078 21.0855 14.6333 21.1492 14.5809 21.2297C14.5285 21.3102 14.5004 21.4042 14.5 21.5002V22.6132C14.8559 22.7172 15.1873 22.8913 15.475 23.1252C15.4887 23.0848 15.4971 23.0428 15.5 23.0002V21.8232L24.7045 17.6802C24.7645 17.6534 24.8186 17.615 24.8637 17.5672C24.9088 17.5195 24.9441 17.4633 24.9675 17.4019C24.9909 17.3406 25.002 17.2752 25.0001 17.2095C24.9982 17.1438 24.9834 17.0792 24.9565 17.0192Z" fill="#C1CFE8"/>
<path d="M23.203 23.9571C23.263 23.9304 23.3172 23.8922 23.3624 23.8446C23.4077 23.797 23.4431 23.741 23.4667 23.6797C23.4903 23.6184 23.5016 23.553 23.4999 23.4874C23.4982 23.4217 23.4837 23.3571 23.457 23.2971C23.4303 23.237 23.3921 23.1829 23.3445 23.1376C23.2969 23.0924 23.2409 23.057 23.1796 23.0334C23.1183 23.0098 23.053 22.9985 22.9873 23.0002C22.9217 23.0018 22.857 23.0164 22.797 23.0431L16.5 25.8416V26.9361L23.203 23.9571Z" fill="#8394B2"/>
</svg>
