<svg width="20" height="20" viewBox="0 0 20 20" fill="none" xmlns="http://www.w3.org/2000/svg">
<path d="M12.4141 13.0975C12.1914 13.0857 11.9805 13.1795 11.8633 13.367L10 16.2732L8.13668 13.367C8.01953 13.1795 7.80859 13.0741 7.58594 13.0975C3.70703 13.5077 1.21094 14.8319 1.21094 16.4842C1.21094 18.7693 5.73438 19.9998 10 19.9998C14.2656 19.9998 18.7891 18.7693 18.7891 16.4842C18.7891 14.8319 16.293 13.5077 12.4141 13.0975Z" fill="#61DE56"/>
<path d="M18.7891 16.4844C18.7891 18.7695 14.2656 20 10 20V16.2734L11.8633 13.3672C11.9805 13.1797 12.1914 13.0859 12.4141 13.0977C16.293 13.5079 18.7891 14.8321 18.7891 16.4844Z" fill="#13C37B"/>
<path d="M10 0C6.48438 0 3.55469 2.8359 3.55469 6.44531C3.55469 7.81637 3.9648 9.04684 4.76176 10.1953L9.50785 17.6797C9.625 17.8671 9.81254 17.9492 10 17.9492C10.1875 17.9492 10.375 17.8671 10.4922 17.6797L15.2617 10.1719C16.0352 9.07031 16.4453 7.78125 16.4453 6.44531C16.4453 2.89449 13.5508 0 10 0ZM10 9.375C8.38457 9.375 7.07031 8.06074 7.07031 6.44531C7.07031 4.82988 8.38457 3.51562 10 3.51562C11.6154 3.51562 12.9297 4.82988 12.9297 6.44531C12.9297 8.06074 11.6154 9.375 10 9.375Z" fill="#FD3018"/>
<path d="M10 0V3.51562C11.6154 3.51562 12.9297 4.82988 12.9297 6.44531C12.9297 8.06074 11.6154 9.375 10 9.375V17.9492C10.1875 17.9492 10.375 17.8672 10.4921 17.6797L15.2617 10.1719C16.0352 9.07031 16.4453 7.78125 16.4453 6.44531C16.4453 2.89449 13.5508 0 10 0Z" fill="#E61E14"/>
</svg>
