<svg width="20" height="20" viewBox="0 0 20 20" fill="none" xmlns="http://www.w3.org/2000/svg">
<path d="M20 5.85275V14.1479C20 14.6731 19.7083 15.1444 19.2389 15.3791L10.4038 19.856C10.2113 19.9517 10.0008 19.9997 9.79074 19.9997H9.78215C9.56582 19.9982 9.34988 19.9467 9.15387 19.8443L9.15035 19.8424L0.738398 15.3779C0.283086 15.1393 0 14.6723 0 14.158V5.84259C0 5.6079 0.0585547 5.38376 0.165586 5.18619C0.293672 4.95033 0.490469 4.75275 0.738437 4.6231L9.15383 0.156691C9.54352 -0.0467465 10.0105 -0.0510433 10.4038 0.144972L10.4077 0.146535L19.239 4.62154C19.4983 4.75119 19.7033 4.95306 19.8345 5.19634C19.9414 5.39353 20 5.61767 20 5.85275Z" fill="#FFC477"/>
<path d="M20 5.85221V14.1473C20 14.6725 19.7083 15.1439 19.2389 15.3785L10.4038 19.8555C10.2113 19.9512 10.0008 19.9992 9.79074 19.9992H9.78215V10.1632L19.8345 5.1958C19.9414 5.39299 20 5.61713 20 5.85221Z" fill="#FFB655"/>
<path d="M19.8344 5.19598L15.3579 7.40809L14.2567 7.95242L9.7821 10.1634L0.165585 5.18582C0.29367 4.94996 0.490467 4.75238 0.738436 4.62274L4.34617 2.70777L5.59691 2.04395L9.15386 0.15633C9.35027 0.0536342 9.5662 0.00168108 9.78214 0.000509208C9.99534 -0.000662667 10.2085 0.0473842 10.4038 0.144611L10.4077 0.146173L19.239 4.62117C19.4982 4.75082 19.7032 4.9527 19.8344 5.19598Z" fill="#FFD399"/>
<path d="M15.3825 7.57481C15.3825 7.57481 15.3825 7.57481 15.3825 7.5752V10.6557C15.3825 10.9791 15.1201 11.2415 14.7968 11.2415C14.4735 11.2415 14.211 10.9791 14.211 10.6557V7.9282L9.78212 5.58449L4.34613 2.70777L5.59688 2.04395L9.78212 4.25879L15.0709 7.05742C15.0717 7.05781 15.0724 7.0582 15.0732 7.05859C15.0845 7.06484 15.0955 7.07188 15.1064 7.07852C15.1123 7.08203 15.1185 7.08555 15.1244 7.08945L15.1248 7.08984C15.1705 7.1207 15.2107 7.15738 15.2447 7.19801C15.2462 7.19996 15.2478 7.20152 15.249 7.20309C15.2576 7.21324 15.265 7.22418 15.2728 7.23473C15.2763 7.23981 15.2802 7.24449 15.2837 7.24996C15.2892 7.25777 15.2935 7.26598 15.2986 7.27418C15.3036 7.28277 15.3091 7.29137 15.3138 7.30035C15.3165 7.30543 15.3189 7.31051 15.3212 7.31559C15.3275 7.32809 15.3333 7.34059 15.3388 7.35348C15.3396 7.35543 15.34 7.35699 15.3408 7.35856C15.3474 7.37496 15.3529 7.39137 15.3576 7.40817C15.3685 7.44293 15.3759 7.47922 15.3794 7.51672C15.3813 7.53613 15.3825 7.55527 15.3825 7.57481Z" fill="#FFFCE5"/>
<path d="M15.3825 7.57496C15.3825 7.57496 15.3825 7.57496 15.3825 7.57535V10.6559C15.3825 10.9792 15.1201 11.2416 14.7968 11.2416C14.4734 11.2416 14.211 10.9792 14.211 10.6559V7.9748L15.3575 7.4082C15.3684 7.44297 15.3759 7.47926 15.3794 7.51676C15.3813 7.53629 15.3825 7.55543 15.3825 7.57496Z" fill="#FFE89C"/>
</svg>
