<svg width="32" height="32" viewBox="0 0 32 32" fill="none" xmlns="http://www.w3.org/2000/svg">
<path d="M24.2717 29.7554L21.2185 28.8933C20.9871 28.8281 20.7412 28.9304 20.6253 29.1411L19.0964 31.9211C19.0352 32.0327 18.8728 32.0234 18.8232 31.9067L17.4495 28.624L14.1418 20.7207L16.5916 14.8687L18.6733 15.7397L20.7576 20.7202L24.4531 29.5505C24.502 29.668 24.3936 29.7898 24.2717 29.7554Z" fill="#FF4A4A"/>
<path d="M20.7576 20.7202L17.4495 28.624L14.1418 20.7207L16.5916 14.8687L18.6731 15.7397L20.7576 20.7202Z" fill="#EF3535"/>
<path d="M12.8607 31.9214L11.3317 29.1416C11.216 28.9309 10.9701 28.8281 10.7389 28.8936L7.68544 29.7556C7.56337 29.79 7.45521 29.668 7.50429 29.5508L13.9398 14.1733L19.5692 16.5293L13.1337 31.9067C13.0846 32.0239 12.922 32.0327 12.8607 31.9214Z" fill="#FF4A4A"/>
<path d="M17.3517 0.493103L19.2302 2.04144C19.5622 2.31512 19.9684 2.48334 20.3964 2.5246L22.8195 2.75775C23.8483 2.85687 24.6625 3.67108 24.7617 4.69989L24.9951 7.12299C25.0363 7.55121 25.2045 7.95746 25.4782 8.28925L27.0266 10.1677C27.684 10.9653 27.684 12.1166 27.0266 12.9142L25.4782 14.7927C25.2045 15.1245 25.0363 15.5307 24.9951 15.9589L24.7617 18.382C24.6625 19.4108 23.8483 20.225 22.8195 20.3242L20.3964 20.5576C19.9682 20.5988 19.5622 20.767 19.2302 21.0405L17.3517 22.5891C16.5544 23.2463 15.4028 23.2463 14.6052 22.5891L12.727 21.0405C12.395 20.767 11.9887 20.5988 11.5605 20.5576L9.13763 20.3242C8.10883 20.225 7.29437 19.4108 7.1955 18.382L6.9621 15.9589C6.92084 15.5307 6.75262 15.1245 6.47894 14.7927L4.9306 12.9142C4.27313 12.1169 4.27313 10.9653 4.9306 10.1677L6.47894 8.28949C6.75262 7.95746 6.92084 7.55121 6.9621 7.12299L7.19525 4.69989C7.29437 3.67133 8.10858 2.85687 9.13739 2.758L11.5605 2.5246C11.9887 2.48334 12.395 2.31512 12.7267 2.04144L14.6052 0.493103C15.4028 -0.164368 16.5544 -0.164368 17.3517 0.493103Z" fill="#FFD782"/>
<path d="M23.1287 11.541C23.1287 15.49 19.9275 18.6912 15.9785 18.6912C12.0298 18.6912 8.82861 15.49 8.82861 11.541C8.82861 7.59229 12.0298 4.39111 15.9785 4.39111C19.9275 4.39111 23.1287 7.59229 23.1287 11.541Z" fill="#FF8000"/>
<path d="M15.9785 4.39111C15.3586 4.39111 14.7568 4.46997 14.1831 4.61841C17.2629 5.4148 19.5378 8.21216 19.5378 11.541C19.5378 14.8699 17.2632 17.6672 14.1831 18.4636C14.7568 18.6121 15.3586 18.6909 15.9785 18.6909C19.9275 18.6909 23.1287 15.4897 23.1287 11.541C23.1287 7.59204 19.9275 4.39111 15.9785 4.39111Z" fill="#FF5F06"/>
<path d="M14.3151 15.174C14.0482 15.174 13.7924 15.0681 13.6036 14.8793L11.4679 12.7433C11.0748 12.3505 11.0748 11.7133 11.4679 11.3203C11.8607 10.9272 12.4979 10.9272 12.891 11.3203L14.3153 12.7446L18.266 8.79364C18.6591 8.40082 19.2963 8.40082 19.6891 8.79364C20.0822 9.18671 20.0822 9.82391 19.6891 10.217L15.0267 14.8793C14.838 15.0681 14.5822 15.174 14.3151 15.174Z" fill="white"/>
</svg>
