<svg width="64" height="64" viewBox="0 0 64 64" fill="none" xmlns="http://www.w3.org/2000/svg">
<g clip-path="url(#clip0_705_6232)">
<path d="M60.0103 28.0102C60.0103 12.473 47.3598 -0.109654 31.797 0.000720646C16.376 0.109971 3.85866 12.8345 3.99078 28.2553C4.09953 40.9493 12.653 51.6271 24.307 54.9488C25.3612 55.2493 26.262 55.9381 26.8095 56.8876L30.3664 63.0562C31.092 64.3146 32.908 64.3146 33.6336 63.0562L37.1905 56.8875C37.7378 55.9383 38.638 55.2495 39.6916 54.9492C51.4211 51.6066 60.0103 40.8122 60.0103 28.0102Z" fill="#6D1442"/>
<path d="M31.797 0.000719028C30.8598 0.00734403 29.9335 0.061469 29.0199 0.159094C43.0873 1.64809 54.0483 13.5481 54.0483 28.0103C54.0483 40.8123 45.4592 51.6066 33.7297 54.9492C32.676 55.2495 31.7758 55.9383 31.2285 56.8875L29.019 60.7195L30.3664 63.0562C31.092 64.3146 32.9082 64.3146 33.6337 63.0562L37.1905 56.8875C37.7378 55.9383 38.638 55.2495 39.6917 54.9492C51.4212 51.6066 60.0103 40.8123 60.0103 28.0103C60.0103 12.473 47.3598 -0.109531 31.797 0.000719028Z" fill="#6D1442"/>
<path d="M32.81 43.6463H31.1905C30.1392 43.6463 29.2871 42.794 29.2871 41.7428V40.4383C29.2871 39.387 30.1394 38.5349 31.1905 38.5349H32.81C33.8612 38.5349 34.7134 39.3872 34.7134 40.4383V41.7428C34.7134 42.7942 33.8612 43.6463 32.81 43.6463Z" fill="#F1F1F4"/>
<path d="M32.8099 38.5349H31.1904C31.1286 38.5349 31.0677 38.5384 31.0073 38.5442C31.9726 38.6363 32.7277 39.4489 32.7277 40.4384V41.7429C32.7277 42.7323 31.9726 43.5449 31.0073 43.637C31.0676 43.6428 31.1286 43.6463 31.1904 43.6463H32.8099C33.8612 43.6463 34.7133 42.794 34.7133 41.7428V40.4383C34.7133 39.3872 33.8612 38.5349 32.8099 38.5349Z" fill="#6D1442"/>
<path d="M32 35.0418C30.6231 35.0418 29.5068 33.9256 29.5068 32.5487V27.0847C29.5068 25.7078 30.6231 24.5916 32 24.5916C34.2383 24.5916 36.0592 22.7706 36.0592 20.5324C36.0592 18.2941 34.2382 16.4732 32 16.4732C29.7617 16.4732 27.9408 18.2942 27.9408 20.5324C27.9408 21.9093 26.8246 23.0256 25.4477 23.0256C24.0708 23.0256 22.9546 21.9093 22.9546 20.5324C22.9546 15.5447 27.0123 11.4868 32.0001 11.4868C36.9878 11.4868 41.0457 15.5447 41.0457 20.5324C41.0457 24.5922 38.3576 28.0358 34.6675 29.1767C34.564 29.2087 34.4933 29.3044 34.4933 29.4127V32.5488C34.4932 33.9256 33.377 35.0418 32 35.0418Z" fill="#F1F1F4"/>
<path d="M31.9999 16.4729C32.3483 16.4729 32.6865 16.5171 33.0094 16.6C32.267 15.7926 31.2028 15.2856 30.022 15.2856C27.7838 15.2856 25.9629 17.1066 25.9629 19.3449C25.9629 20.7218 24.8466 21.838 23.4698 21.838C23.42 21.838 23.3714 21.8334 23.3223 21.8305C23.7604 22.5461 24.5471 23.0251 25.4476 23.0251C26.8245 23.0251 27.9408 21.9089 27.9408 20.532C27.9408 18.2939 29.7618 16.4729 31.9999 16.4729Z" fill="#6D1442"/>
<path d="M35.612 12.2415C37.7141 13.8993 39.0675 16.4662 39.0675 19.345C39.0675 23.0996 36.7683 26.3272 33.5036 27.6936C32.903 27.945 32.5151 28.5358 32.5151 29.187V31.3612C32.5151 32.7381 31.3989 33.8543 30.022 33.8543C29.9723 33.8543 29.9236 33.8497 29.8745 33.847C30.3084 34.5555 31.0839 35.0322 31.9734 35.0415C33.3593 35.056 34.493 33.8733 34.493 32.4874V29.4125C34.493 29.3041 34.5636 29.2085 34.6671 29.1765C38.3573 28.0357 41.0454 24.592 41.0454 20.5322C41.0454 16.8283 38.8066 13.6388 35.612 12.2415Z" fill="#6D1442"/>
</g>
<defs>
<clipPath id="clip0_705_6232">
<rect width="64" height="64" fill="white"/>
</clipPath>
</defs>
</svg>
