<svg width="20" height="20" viewBox="0 0 20 20" fill="none" xmlns="http://www.w3.org/2000/svg">
<path d="M10 15.3125L8.82812 17.6562L10 20C11.2944 20 12.3438 18.9507 12.3438 17.6562C12.3438 16.3618 11.2944 15.3125 10 15.3125Z" fill="#0A77E8"/>
<path d="M7.65625 17.6562C7.65625 18.9507 8.70559 20 10 20V15.3125C8.70559 15.3125 7.65625 16.3618 7.65625 17.6562Z" fill="#0F9AF0"/>
<path d="M10 0L7.65625 2.34375L10 4.6875C10.7754 4.6875 11.4062 5.31832 11.4062 6.09375C11.4062 6.50695 11.2249 6.89805 10.9086 7.16684L10 7.9393L8.4375 11.04L10 14.1406H12.3438V12.0993L13.9444 10.7385C15.3103 9.57777 16.0938 7.88488 16.0938 6.09375C16.0938 2.73363 13.3601 0 10 0V0Z" fill="#0A77E8"/>
<path d="M7.65625 9.93211V14.1408H10V7.93945L7.65625 9.93211Z" fill="#0F9AF0"/>
<path d="M3.90625 6.09375V6.67969H8.59375V6.09375C8.59375 5.31832 9.22457 4.6875 10 4.6875V0C6.63988 0 3.90625 2.73363 3.90625 6.09375Z" fill="#0F9AF0"/>
</svg>
