<?xml version="1.0" encoding="UTF-8"?>
<svg xmlns="http://www.w3.org/2000/svg" xmlns:xlink="http://www.w3.org/1999/xlink" width="20px" height="20px" viewBox="0 0 20 20" version="1.1">
<g id="surface1">
<path style=" stroke:none;fill-rule:nonzero;fill:rgb(100%,81.960784%,39.215686%);fill-opacity:1;" d="M 17.515625 6.988281 L 13.863281 6.988281 L 14.800781 3.710938 C 14.953125 3.132812 14.878906 2.519531 14.585938 2 C 14.296875 1.480469 13.816406 1.09375 13.246094 0.921875 C 12.675781 0.75 12.058594 0.804688 11.53125 1.078125 C 11 1.351562 10.597656 1.824219 10.410156 2.386719 L 9.722656 4.589844 C 9.476562 5.367188 9.054688 6.078125 8.492188 6.664062 C 7.929688 7.25 7.238281 7.703125 6.472656 7.976562 C 6.378906 8.011719 6.300781 8.070312 6.246094 8.148438 C 6.191406 8.226562 6.160156 8.320312 6.160156 8.417969 L 6.160156 17.792969 C 6.160156 17.890625 6.191406 17.984375 6.246094 18.0625 C 6.300781 18.140625 6.378906 18.203125 6.472656 18.234375 C 8.304688 18.894531 10.238281 19.226562 12.1875 19.222656 L 17.53125 19.222656 C 17.984375 19.222656 18.417969 19.042969 18.734375 18.722656 C 19.054688 18.402344 19.234375 17.96875 19.234375 17.519531 L 19.234375 8.691406 C 19.234375 8.464844 19.1875 8.242188 19.101562 8.035156 C 19.015625 7.828125 18.890625 7.640625 18.730469 7.480469 C 18.570312 7.324219 18.378906 7.199219 18.171875 7.113281 C 17.964844 7.027344 17.742188 6.984375 17.515625 6.988281 Z M 17.515625 6.988281 "/>
<path style=" stroke:none;fill-rule:nonzero;fill:rgb(15.294118%,34.901961%,58.823529%);fill-opacity:1;" d="M 6.628906 6.988281 L 1.25 6.988281 C 0.992188 6.988281 0.78125 7.199219 0.78125 7.457031 L 0.78125 18.753906 C 0.78125 19.011719 0.992188 19.222656 1.25 19.222656 L 6.628906 19.222656 C 6.886719 19.222656 7.097656 19.011719 7.097656 18.753906 L 7.097656 7.457031 C 7.097656 7.199219 6.886719 6.988281 6.628906 6.988281 Z M 6.628906 6.988281 "/>
</g>
</svg>
