<svg width="20" height="20" viewBox="0 0 20 20" fill="none" xmlns="http://www.w3.org/2000/svg">
<path d="M6.93242 9.54811L6.33273 8.541L13.0412 4.51025L13.6409 5.51732L6.93242 9.54811Z" fill="#0095FF"/>
<path d="M12.9795 15.6869L6.51527 12.3834L7.04398 11.3374L13.5082 14.6409L12.9795 15.6869Z" fill="#0095FF"/>
<path d="M15.8594 0C13.9257 0 12.3438 1.58199 12.3438 3.51562C12.3438 5.44918 13.9257 7.03125 15.8594 7.03125C17.793 7.03125 19.375 5.44918 19.375 3.51562C19.375 1.58199 17.793 0 15.8594 0Z" fill="#00ABE9"/>
<path d="M15.8594 12.9688C13.9257 12.9688 12.3438 14.5507 12.3438 16.4844C12.3438 18.4179 13.9257 20 15.8594 20C17.793 20 19.375 18.4179 19.375 16.4844C19.375 14.5507 17.793 12.9688 15.8594 12.9688Z" fill="#00ABE9"/>
<path d="M4.14062 7.07031C2.20699 7.07031 0.625 8.6523 0.625 10.5859C0.625 12.5195 2.20699 14.1016 4.14062 14.1016C6.07426 14.1016 7.65625 12.5195 7.65625 10.5859C7.65625 8.6523 6.07426 7.07031 4.14062 7.07031Z" fill="#00ABE9"/>
<path d="M19.375 16.4844C19.375 18.4179 17.793 20 15.8594 20V12.9688C17.793 12.9688 19.375 14.5507 19.375 16.4844Z" fill="#0095FF"/>
<path d="M15.8594 7.03125V0C17.793 0 19.375 1.58199 19.375 3.51562C19.375 5.44918 17.793 7.03125 15.8594 7.03125Z" fill="#0095FF"/>
<path d="M7.65625 10.5859C7.65625 12.5195 6.07426 14.1016 4.14062 14.1016V7.07031C6.07426 7.07031 7.65625 8.6523 7.65625 10.5859Z" fill="#0095FF"/>
</svg>
