<svg width="20" height="20" viewBox="0 0 20 20" fill="none" xmlns="http://www.w3.org/2000/svg">
<path d="M13.0341 4.81674C13.0341 6.14044 12.5594 7.28622 11.6229 8.22281C10.6865 9.15924 9.54056 9.63394 8.21686 9.63394H8.21457C6.89255 9.63348 5.74738 9.15878 4.81094 8.22281C3.87436 7.28622 3.39981 6.14044 3.39981 4.81674C3.39981 3.4935 3.87436 2.34756 4.81094 1.41113C5.74692 0.475006 6.89209 0.000457766 8.21457 0H8.21686C9.5401 0 10.686 0.474701 11.6229 1.41113C12.5594 2.34756 13.0341 3.4935 13.0341 4.81674Z" fill="#FFBB85"/>
<path d="M16.6862 16.5605C16.6862 17.6049 16.3541 18.4503 15.6998 19.0731C15.0531 19.6884 14.1978 20.0002 13.158 20.0002H3.52783C2.48795 20.0002 1.63269 19.6884 0.986481 19.0731C0.331726 18.4499 0 17.6046 0 16.5605C0 16.1589 0.0132752 15.7616 0.0398254 15.3795C0.0668335 14.9889 0.12146 14.5638 0.202026 14.1153C0.283203 13.6632 0.387573 13.2358 0.512543 12.8452C0.642242 12.4408 0.817718 12.042 1.03485 11.6599C1.26038 11.2633 1.52527 10.9178 1.8222 10.6334C2.13348 10.3357 2.51404 10.0966 2.95395 9.92236C3.39233 9.74902 3.87833 9.66113 4.39835 9.66113C4.60236 9.66113 4.79996 9.7446 5.18082 9.99271C5.41916 10.1482 5.69382 10.3252 5.99701 10.519C6.25885 10.6859 6.61346 10.8425 7.05185 10.9839C7.43713 11.1086 7.82822 11.1782 8.21457 11.1902C8.25714 11.1917 8.29971 11.1925 8.34229 11.1925C8.77136 11.1925 9.20532 11.1222 9.63318 10.9839C10.0716 10.8425 10.4266 10.6859 10.6883 10.519C10.9947 10.3232 11.2694 10.1464 11.5042 9.99316C11.8854 9.7446 12.0827 9.66113 12.2871 9.66113C12.8067 9.66113 13.2927 9.74902 13.7314 9.92236C14.1713 10.0966 14.5518 10.3362 14.8628 10.6334C15.1602 10.9178 15.4251 11.2633 15.6505 11.6599C15.8678 12.0423 16.0435 12.4408 16.1728 12.8447C16.2979 13.2358 16.4026 13.6632 16.4838 14.1156C16.5639 14.5645 16.6187 14.9897 16.6455 15.3792C16.6725 15.7601 16.6858 16.1574 16.6862 16.5605Z" fill="#8A3636"/>
<path d="M8.21686 9.63394H8.21457V0H8.21686C9.5401 0 10.686 0.474701 11.6229 1.41113C12.5594 2.34756 13.0341 3.4935 13.0341 4.81674C13.0341 6.14044 12.5594 7.28622 11.6229 8.22281C10.6865 9.15924 9.54056 9.63394 8.21686 9.63394Z" fill="#F5A86C"/>
<path d="M16.6862 16.5605C16.6862 17.6049 16.3541 18.4503 15.6998 19.0731C15.0531 19.6884 14.1978 20.0002 13.158 20.0002H8.21457V11.1902C8.25714 11.1917 8.29971 11.1925 8.34229 11.1925C8.77136 11.1925 9.20532 11.1222 9.63318 10.9839C10.0716 10.8425 10.4266 10.6859 10.6883 10.519C10.9947 10.3232 11.2694 10.1464 11.5042 9.99316C11.8854 9.7446 12.0827 9.66113 12.2871 9.66113C12.8067 9.66113 13.2927 9.74902 13.7314 9.92236C14.1713 10.0966 14.5518 10.3362 14.8628 10.6334C15.1602 10.9178 15.4251 11.2633 15.6505 11.6599C15.8678 12.0423 16.0435 12.4408 16.1728 12.8447C16.2979 13.2358 16.4026 13.6632 16.4838 14.1156C16.5639 14.5645 16.6187 14.9897 16.6455 15.3792C16.6725 15.7601 16.6858 16.1574 16.6862 16.5605Z" fill="#681D1D"/>
</svg>
