<svg width="32" height="32" viewBox="0 0 32 32" fill="none" xmlns="http://www.w3.org/2000/svg">
<path d="M7.44628 3.70405C13.5947 3.70405 17.8169 0.519165 20.7796 0.519165C23.7423 0.519165 29.9645 2.22228 29.9645 15.8516C29.9645 29.4809 21.5938 31.4809 18.3352 31.4809C3.07561 31.4818 -3.44262 3.70405 7.44628 3.70405Z" fill="#EBEBEB"/>
<path d="M8.56982 3.2616L9.8269 2.00452L10.4554 2.63306L9.19836 3.89014L8.56982 3.2616Z" fill="#A4AFC1"/>
<path d="M4.95654 6.87451L6.21362 5.61743L6.84216 6.24597L5.58508 7.50305L4.95654 6.87451Z" fill="#A4AFC1"/>
<path d="M4.95654 2.47559L5.58508 1.84705L6.84216 3.10413L6.21362 3.73266L4.95654 2.47559Z" fill="#A4AFC1"/>
<path d="M29.9647 12.9627C29.2296 12.9627 28.6313 12.3645 28.6313 11.6294C28.6313 10.8942 29.2296 10.296 29.9647 10.296C30.6998 10.296 31.298 10.8942 31.298 11.6294C31.298 12.3645 30.6998 12.9627 29.9647 12.9627ZM29.9647 11.1849C29.7202 11.1849 29.5202 11.3849 29.5202 11.6294C29.5202 11.8738 29.7202 12.0738 29.9647 12.0738C30.2091 12.0738 30.4091 11.8738 30.4091 11.6294C30.4091 11.3849 30.2091 11.1849 29.9647 11.1849Z" fill="#A4AFC1"/>
<path d="M16 25.1111L26 13.2587L22.4942 6.88892H16.0018H9.50578L6 13.2587L16 25.1111Z" fill="#EBCE6D"/>
<path d="M11.5557 13.3334L16.0001 6.88892L20.4446 13.3334H11.5557Z" fill="#EBCE6D"/>
<path d="M22.4943 6.88892L16.0001 25.1111L9.50586 6.88892H22.4943Z" fill="#EBCE6D"/>
<path d="M7.77778 13.2587L11.2836 6.88892H9.50578L6 13.2587L16 25.1111L16.8889 24.0578L7.77778 13.2587Z" fill="#60130C"/>
<path d="M9.23275 13.2124L12.4523 7.19995H10.8197L7.6001 13.2124L16.7838 24.4L17.6001 23.4057L9.23275 13.2124Z" fill="#60130C"/>
<path d="M10.8328 13.2124L14.8002 7.59995L12.4198 7.19995L9.2002 13.2124L17.6002 23.7999L18.2002 22.7999L10.8328 13.2124Z" fill="#60130C"/>
<path d="M16.0002 25.7779C15.8038 25.7779 15.6171 25.6907 15.4909 25.5405L5.49091 13.6881C5.31313 13.4774 5.2838 13.1787 5.41625 12.937L8.92113 6.56718C9.03847 6.35385 9.26247 6.22229 9.50513 6.22229H22.4945C22.7371 6.22229 22.9611 6.35385 23.0785 6.56807L26.5834 12.9378C26.7158 13.1787 26.6865 13.4774 26.5087 13.689L16.5087 25.5414C16.3834 25.6907 16.1967 25.7779 16.0002 25.7779ZM6.80469 13.1787L16.0002 24.0774L25.1958 13.1787L22.1007 7.55562H9.8998L6.80469 13.1787Z" fill="black"/>
<path d="M19.8962 13.7121L16.0002 8.06321L12.1042 13.7112L11.0073 12.9539L15.4518 6.50944C15.6998 6.14855 16.3007 6.14855 16.5487 6.50944L20.9931 12.9539L19.8962 13.7121Z" fill="black"/>
<path d="M6 12.6667H26V14.0001H6V12.6667Z" fill="black"/>
<path d="M16.0001 25.7778C15.7183 25.7778 15.4668 25.6009 15.3726 25.3351L8.87744 7.11292L10.1326 6.66492L16.0001 23.1254L18.1166 17.1876L19.3717 17.6356L16.6277 25.3351C16.5334 25.6009 16.2819 25.7778 16.0001 25.7778Z" fill="black"/>
<path d="M18.6187 15.7719L21.8687 6.65999L23.1239 7.10769L19.8738 16.2196L18.6187 15.7719Z" fill="black"/>
</svg>
