<svg width="32" height="32" viewBox="0 0 32 32" fill="none" xmlns="http://www.w3.org/2000/svg">
<path d="M7.44579 3.70393C13.5942 3.70393 17.8165 0.519043 20.7791 0.519043C23.7418 0.519043 29.964 2.22215 29.964 15.8515C29.964 29.4808 21.5933 31.4808 18.3347 31.4808C3.07512 31.4817 -3.4431 3.70393 7.44579 3.70393Z" fill="#EBEBEB"/>
<path d="M14.4415 19.9999C14.4415 22.3288 12.5571 24.2221 10.2193 24.2221C7.8904 24.2221 5.99707 22.3288 5.99707 19.9999C5.99707 19.4755 6.09485 18.9777 6.27263 18.5155C6.86818 16.9155 8.41485 15.7777 10.2193 15.7777C12.5571 15.7777 14.4415 17.671 14.4415 19.9999Z" fill="#60130C"/>
<path d="M14.4413 10.2222V19.9999C14.4413 17.671 12.5569 15.7777 10.2191 15.7777C8.41468 15.7777 6.86802 16.9155 6.27246 18.5155L9.64135 9.56438C9.65913 9.49327 9.68579 9.42215 9.71246 9.35993C10.0591 8.43549 10.948 7.77771 11.9969 7.77771C13.348 7.77771 14.4413 8.87104 14.4413 10.2222Z" fill="#F3F3F1"/>
<path d="M17.6904 10.2222V19.9999C17.6904 17.671 19.5749 15.7777 21.9127 15.7777C23.7171 15.7777 25.2638 16.9155 25.8593 18.5155L22.4904 9.56438C22.4727 9.49327 22.446 9.42215 22.4193 9.35993C22.0727 8.43549 21.1838 7.77771 20.1349 7.77771C18.7838 7.77771 17.6904 8.87104 17.6904 10.2222Z" fill="#F3F3F1"/>
<path d="M12.2189 15.7777C11.8731 15.7777 11.5425 15.831 11.2207 15.9102C13.0696 16.3617 14.4411 18.0168 14.4411 19.9999V16.423C13.7949 16.0204 13.0376 15.7777 12.2189 15.7777Z" fill="#D5DBE1"/>
<path d="M11.6413 9.56438C11.6591 9.49327 11.6858 9.42215 11.7125 9.35993C11.9409 8.75015 12.4076 8.26215 12.9978 7.99638C12.692 7.8586 12.3542 7.77771 11.9969 7.77771C10.948 7.77771 10.0591 8.43549 9.71246 9.35993C9.68579 9.42215 9.65913 9.49327 9.64135 9.56438L6.27246 18.5155C6.75779 17.2106 7.88135 16.2248 9.25646 15.9013L11.6413 9.56438Z" fill="#D5DBE1"/>
<path d="M19.6904 10.2222C19.6904 9.22927 20.2842 8.3786 21.134 7.99638C20.8291 7.85949 20.4922 7.77771 20.1349 7.77771C18.7838 7.77771 17.6904 8.87104 17.6904 10.2222V19.9999C17.6904 18.487 18.4922 17.1688 19.6904 16.423V10.2222Z" fill="#D5DBE1"/>
<path d="M23.9124 15.7777C23.5658 15.7777 23.2333 15.831 22.9106 15.9102C24.2698 16.2426 25.3773 17.2222 25.8591 18.5155L24.8751 15.9013C24.564 15.8284 24.2449 15.7777 23.9124 15.7777Z" fill="#D5DBE1"/>
<path d="M14.4414 14.8888H17.5525V18.8888H14.4414V14.8888Z" fill="#F3F3F1"/>
<path d="M14.4414 14.8888H16.4414V18.8888H14.4414V14.8888Z" fill="#D5DBE1"/>
<path d="M17.5529 20.6666C17.1849 20.6666 16.8862 20.3679 16.8862 19.9999V18.8888C16.8862 18.5208 17.1849 18.2222 17.5529 18.2222C17.9209 18.2222 18.2196 18.5208 18.2196 18.8888V19.9999C18.2196 20.3679 17.9209 20.6666 17.5529 20.6666Z" fill="black"/>
<path d="M25.9972 19.9999C25.9972 22.3288 24.1127 24.2221 21.775 24.2221C19.4461 24.2221 17.5527 22.3288 17.5527 19.9999C17.5527 17.671 19.4461 15.7777 21.775 15.7777C23.5883 15.7777 25.1261 16.9155 25.7305 18.5155C25.9083 18.9777 25.9972 19.4755 25.9972 19.9999Z" fill="#60130C"/>
<path d="M7.99707 19.9999C7.99707 19.4755 8.09485 18.9777 8.27263 18.5155C8.75441 17.2222 9.86196 16.2417 11.2211 15.9102C10.8984 15.831 10.5668 15.7777 10.2193 15.7777C8.41485 15.7777 6.86818 16.9155 6.27263 18.5155C6.09485 18.9777 5.99707 19.4755 5.99707 19.9999C5.99707 22.3288 7.8904 24.2221 10.2193 24.2221C10.566 24.2221 10.8984 24.1688 11.2211 24.0897C9.37485 23.639 7.99707 21.983 7.99707 19.9999Z" fill="#EBCE6D"/>
<path d="M19.5527 19.9999C19.5527 18.0168 20.9305 16.3608 22.7767 15.9102C22.455 15.8319 22.1225 15.7777 21.775 15.7777C19.4461 15.7777 17.5527 17.671 17.5527 19.9999C17.5527 22.3288 19.4461 24.2221 21.775 24.2221C22.1216 24.2221 22.4541 24.1688 22.7767 24.0897C20.9305 23.639 19.5527 21.983 19.5527 19.9999Z" fill="#EBCE6D"/>
<path d="M7 6.11096H8.77778V6.99985H7V6.11096Z" fill="#A4AFC1"/>
<path d="M1.88867 6.11096H3.66645V6.99985H1.88867V6.11096Z" fill="#A4AFC1"/>
<path d="M5 2.99988H5.88889V4.77766H5V2.99988Z" fill="#A4AFC1"/>
<path d="M5 8.11096H5.88889V9.88874H5V8.11096Z" fill="#A4AFC1"/>
<path d="M11.5555 28.8887C10.8204 28.8887 10.2222 28.2905 10.2222 27.5554C10.2222 26.8203 10.8204 26.222 11.5555 26.222C12.2906 26.222 12.8888 26.8203 12.8888 27.5554C12.8888 28.2905 12.2906 28.8887 11.5555 28.8887ZM11.5555 27.1109C11.3111 27.1109 11.1111 27.31 11.1111 27.5554C11.1111 27.8007 11.3111 27.9998 11.5555 27.9998C11.7999 27.9998 11.9999 27.8007 11.9999 27.5554C11.9999 27.31 11.7999 27.1109 11.5555 27.1109Z" fill="#A4AFC1"/>
<path d="M10.2219 24.8889C7.52679 24.8889 5.33301 22.696 5.33301 20C5.33301 19.4089 5.4379 18.8302 5.64501 18.2791C6.3579 16.384 8.1979 15.1111 10.2219 15.1111C12.917 15.1111 15.1108 17.304 15.1108 20C15.1108 22.696 12.917 24.8889 10.2219 24.8889ZM10.2219 16.4444C8.7499 16.4444 7.41123 17.3706 6.89301 18.7484C6.74279 19.1484 6.66634 19.5697 6.66634 20C6.66634 21.9609 8.26101 23.5555 10.2219 23.5555C12.1828 23.5555 13.7775 21.9609 13.7775 20C13.7775 18.0391 12.1828 16.4444 10.2219 16.4444Z" fill="black"/>
<path d="M13.7773 10.2222H15.1107V19.9999H13.7773V10.2222Z" fill="black"/>
<path d="M5.64453 18.277L9.08631 9.12497L10.3343 9.59431L6.89253 18.7463L5.64453 18.277Z" fill="black"/>
<path d="M15.1109 10.2222H13.7776C13.7776 9.24175 12.9803 8.44442 11.9998 8.44442C11.2647 8.44442 10.598 8.90664 10.3394 9.59375C10.3163 9.65064 10.2994 9.69064 10.2896 9.72975L8.99805 9.39731C9.02471 9.29508 9.06205 9.19286 9.09938 9.10219C9.54383 7.92086 10.7127 7.11108 11.9998 7.11108C13.7154 7.11108 15.1109 8.50664 15.1109 10.2222Z" fill="black"/>
<path d="M18.222 10.2222H16.8887C16.8887 8.50664 18.2842 7.11108 19.9998 7.11108C21.2869 7.11108 22.4558 7.92086 22.9082 9.12531L22.9847 9.34486L21.726 9.78308L21.6549 9.57864C21.4016 8.90664 20.7349 8.44442 19.9998 8.44442C19.0193 8.44442 18.222 9.24175 18.222 10.2222Z" fill="black"/>
<path d="M16.8887 10.2222H18.222V19.9999H16.8887V10.2222Z" fill="black"/>
<path d="M21.6646 9.59692L22.9126 9.12759L26.3543 18.2796L25.1063 18.7489L21.6646 9.59692Z" fill="black"/>
<path d="M21.7776 24.8889C19.0825 24.8889 16.8887 22.696 16.8887 20C16.8887 17.304 19.0825 15.1111 21.7776 15.1111C23.8016 15.1111 25.6416 16.384 26.3545 18.2791C26.5616 18.8302 26.6665 19.4089 26.6665 20C26.6665 22.696 24.4727 24.8889 21.7776 24.8889ZM21.7776 16.4444C19.8167 16.4444 18.222 18.0391 18.222 20C18.222 21.9609 19.8167 23.5555 21.7776 23.5555C23.7385 23.5555 25.3331 21.9609 25.3331 20C25.3331 19.5697 25.2567 19.1484 25.1065 18.7484C24.5873 17.3706 23.2496 16.4444 21.7776 16.4444Z" fill="black"/>
<path d="M14.4443 18.2222H17.5554V19.5555H14.4443V18.2222Z" fill="black"/>
<path d="M14.4443 14.2222H17.5554V15.5555H14.4443V14.2222Z" fill="black"/>
</svg>
