<svg width="20" height="20" viewBox="0 0 20 20" fill="none" xmlns="http://www.w3.org/2000/svg">
<path d="M17.6283 18.338H2.37172C1.55859 18.338 0.899414 17.6788 0.899414 16.8657V4.16176C0.899414 3.34863 1.55859 2.68945 2.37172 2.68945H17.6283C18.4414 2.68945 19.1006 3.34863 19.1006 4.16176V16.8657C19.1006 17.6788 18.4414 18.338 17.6283 18.338Z" fill="url(#paint0_linear_833_3737)"/>
<path d="M17.288 17.9892H2.71195C1.93508 17.9892 1.30527 17.3594 1.30527 16.5825V4.44525C1.30527 3.66838 1.93504 3.03857 2.71195 3.03857H17.288C18.0649 3.03857 18.6947 3.66834 18.6947 4.44525V16.5826C18.6947 17.3594 18.0649 17.9892 17.288 17.9892Z" fill="url(#paint1_linear_833_3737)"/>
<path d="M18.1141 6.79885L14.4444 0.442757C14.2 0.0193591 13.6585 -0.125719 13.2351 0.118773L1.66488 6.79885H18.1141Z" fill="#61D24F"/>
<path d="M0.899414 11.9142H19.1006V7.09342C19.1006 6.48494 18.6073 5.9917 17.9989 5.9917H2.00113C1.39266 5.9917 0.899414 6.48494 0.899414 7.09342V11.9142Z" fill="url(#paint2_linear_833_3737)"/>
<path d="M0.899414 10.1013V16.8657C0.899414 17.6788 1.55859 18.3381 2.37176 18.3381H17.6283C18.4414 18.3381 19.1006 17.6789 19.1006 16.8658V10.1013C19.1006 9.59904 18.6934 9.19189 18.1912 9.19189H1.80879C1.30656 9.19189 0.899414 9.599 0.899414 10.1013Z" fill="url(#paint3_linear_833_3737)"/>
<path d="M16.3547 6.6123V18.3381H17.6283C18.4414 18.3381 19.1006 17.679 19.1006 16.8658V9.35825L16.3547 6.6123Z" fill="url(#paint4_linear_833_3737)"/>
<path d="M15.1132 19.989L2.33633 18.5051C1.51727 18.41 0.899414 17.7163 0.899414 16.8917V4.05225C0.899414 4.32818 1.10617 4.56029 1.3802 4.59213L15.4879 6.23064C16.307 6.3258 16.9248 7.01951 16.9248 7.84408V18.3756C16.9248 19.3469 16.078 20.1011 15.1132 19.989Z" fill="url(#paint5_linear_833_3737)"/>
<path d="M15.1132 17.4245L2.33633 15.9406C1.51727 15.8454 0.899414 15.1517 0.899414 14.3271V16.8918C0.899414 17.7163 1.51727 18.4101 2.33633 18.5052L15.1132 19.9891C16.078 20.1012 16.9248 19.347 16.9248 18.3757V15.8111C16.9248 16.7824 16.078 17.5365 15.1132 17.4245Z" fill="url(#paint6_linear_833_3737)"/>
<path d="M2.04492 6.05343C2.03422 6.05343 2.02336 6.05281 2.01246 6.05164L1.42777 5.98734C1.26629 5.96957 1.14977 5.82433 1.16754 5.66288C1.18531 5.50143 1.33066 5.38502 1.49199 5.40264L2.07668 5.46694C2.23816 5.48471 2.35469 5.62995 2.33691 5.7914C2.32035 5.94199 2.19293 6.05343 2.04492 6.05343Z" fill="#C47E4D"/>
<path d="M14.0592 19.02C14.0468 19.02 14.0343 19.0192 14.0217 19.0176L12.8853 18.8731C12.7242 18.8526 12.6102 18.7054 12.6307 18.5442C12.6512 18.3831 12.7984 18.2697 12.9596 18.2896L14.0959 18.4341C14.257 18.4545 14.3711 18.6018 14.3506 18.763C14.3317 18.9115 14.2051 19.02 14.0592 19.02ZM15.1777 18.8744C15.0674 18.8744 14.9616 18.812 14.9115 18.7055C14.8422 18.5586 14.9052 18.3833 15.0522 18.3142C15.3506 18.1735 15.575 17.9403 15.6679 17.6742C15.7215 17.521 15.8893 17.4401 16.0426 17.4935C16.1959 17.5471 16.2768 17.7148 16.2233 17.8682C16.0765 18.2884 15.7497 18.6358 15.3029 18.8463C15.2624 18.8653 15.2197 18.8744 15.1777 18.8744ZM11.7865 18.731C11.7742 18.731 11.7616 18.7302 11.749 18.7286L10.6126 18.5841C10.4515 18.5637 10.3374 18.4164 10.358 18.2552C10.3785 18.0941 10.5257 17.9807 10.6869 18.0006L11.8233 18.1451C11.9843 18.1655 12.0984 18.3128 12.0779 18.474C12.059 18.6225 11.9323 18.731 11.7865 18.731ZM9.5138 18.442C9.50145 18.442 9.48891 18.4412 9.4763 18.4396L8.33993 18.2951C8.17883 18.2746 8.06473 18.1274 8.08528 17.9662C8.10579 17.8051 8.25305 17.6911 8.41419 17.7116L9.55055 17.856C9.71165 17.8765 9.82575 18.0238 9.8052 18.185C9.78626 18.3334 9.65962 18.442 9.5138 18.442ZM7.24102 18.153C7.22868 18.153 7.21614 18.1521 7.20352 18.1506L6.06711 18.006C5.90598 17.9855 5.79192 17.8383 5.81246 17.6771C5.83297 17.516 5.98028 17.4026 6.14137 17.4225L7.27778 17.567C7.43891 17.5875 7.55297 17.7348 7.53243 17.8959C7.51356 18.0445 7.38692 18.153 7.24102 18.153ZM4.96832 17.8639C4.95598 17.8639 4.94344 17.8631 4.93082 17.8616L3.79441 17.717C3.63328 17.6965 3.51922 17.5493 3.53977 17.3881C3.56027 17.227 3.70758 17.1135 3.86867 17.1335L5.00508 17.278C5.16621 17.2985 5.28028 17.4457 5.25973 17.6069C5.24082 17.7555 5.11422 17.8639 4.96832 17.8639ZM16.0116 16.9274C15.8491 16.9274 15.7175 16.7958 15.7175 16.6333V15.4878C15.7175 15.3253 15.8491 15.1937 16.0116 15.1937C16.174 15.1937 16.3057 15.3253 16.3057 15.4878V16.6333C16.3057 16.7958 16.1741 16.9274 16.0116 16.9274ZM16.0116 14.6364C15.8491 14.6364 15.7175 14.5048 15.7175 14.3423V13.1968C15.7175 13.0344 15.8491 12.9027 16.0116 12.9027C16.174 12.9027 16.3057 13.0344 16.3057 13.1968V14.3423C16.3057 14.5048 16.1741 14.6364 16.0116 14.6364ZM16.0116 12.3454C15.8491 12.3454 15.7175 12.2138 15.7175 12.0513V10.9058C15.7175 10.7433 15.8491 10.6117 16.0116 10.6117C16.174 10.6117 16.3057 10.7433 16.3057 10.9058V12.0513C16.3057 12.2137 16.1741 12.3454 16.0116 12.3454ZM16.0116 10.0544C15.8491 10.0544 15.7175 9.92276 15.7175 9.7603V8.61479C15.7175 8.45233 15.8491 8.32069 16.0116 8.32069C16.174 8.32069 16.3057 8.45233 16.3057 8.61479V9.7603C16.3057 9.92272 16.1741 10.0544 16.0116 10.0544ZM15.6002 7.88077C15.5276 7.88077 15.4549 7.85401 15.398 7.80015C15.18 7.59358 14.8775 7.46198 14.546 7.42952L14.5383 7.4287C14.3767 7.41132 14.2599 7.26628 14.2773 7.10479C14.2947 6.94327 14.4397 6.8264 14.6012 6.84386L14.6062 6.8444C15.0643 6.88929 15.4902 7.07718 15.8026 7.37315C15.9206 7.48487 15.9256 7.67104 15.8138 7.78897C15.756 7.84995 15.6782 7.88077 15.6002 7.88077ZM13.4314 7.30522C13.4207 7.30522 13.4098 7.3046 13.3989 7.30343L12.2603 7.17823C12.0988 7.16046 11.9823 7.01522 12 6.85378C12.0178 6.69233 12.1632 6.57612 12.3245 6.59354L13.4631 6.71874C13.6246 6.73651 13.7411 6.88175 13.7234 7.04319C13.7068 7.19374 13.5794 7.30522 13.4314 7.30522ZM11.1541 7.05483C11.1434 7.05483 11.1326 7.05421 11.1217 7.05304L9.98302 6.92784C9.82157 6.91007 9.70501 6.76483 9.72278 6.60339C9.74052 6.4419 9.8861 6.32558 10.0472 6.34315L11.1859 6.46835C11.3474 6.48612 11.4639 6.63136 11.4461 6.7928C11.4296 6.94339 11.3022 7.05483 11.1541 7.05483ZM8.8768 6.80448C8.8661 6.80448 8.85524 6.80386 8.84434 6.80268L7.70571 6.67749C7.54426 6.65972 7.4277 6.51448 7.44547 6.35304C7.46321 6.19159 7.60848 6.07526 7.76993 6.0928L8.90856 6.218C9.07001 6.23577 9.18657 6.38101 9.1688 6.54245C9.15227 6.693 9.02485 6.80448 8.8768 6.80448ZM6.5995 6.55413C6.58879 6.55413 6.57793 6.55351 6.56703 6.55233L5.4284 6.42714C5.26692 6.40936 5.15039 6.26413 5.16817 6.10268C5.1859 5.94128 5.33102 5.82499 5.49262 5.84245L6.63125 5.96765C6.7927 5.98542 6.90926 6.13065 6.89149 6.2921C6.875 6.44265 6.74754 6.55413 6.5995 6.55413ZM4.32219 6.30374C4.31149 6.30374 4.30063 6.30311 4.28973 6.30194L3.15109 6.17675C2.98965 6.15897 2.87309 6.01374 2.89086 5.85229C2.90863 5.69089 3.05379 5.57464 3.21531 5.59206L4.35395 5.71726C4.51543 5.73503 4.63195 5.88026 4.61418 6.04171C4.59766 6.19226 4.4702 6.30374 4.32219 6.30374Z" fill="#C47E4D"/>
<path d="M2.69285 17.5746C2.68051 17.5746 2.66801 17.5738 2.65539 17.5722L2.07184 17.498C1.91071 17.4776 1.7966 17.3303 1.81715 17.1692C1.83762 17.008 1.98488 16.894 2.14602 16.9145L2.72957 16.9887C2.89071 17.0091 3.00481 17.1564 2.98426 17.3175C2.96536 17.4661 2.83871 17.5746 2.69285 17.5746Z" fill="#C47E4D"/>
<path d="M13.4988 2.19017L11.6164 3.21447C11.3712 3.34787 11.0643 3.25728 10.9309 3.01209C10.7975 2.76689 10.8881 2.45998 11.1332 2.32654L13.0156 1.30228C13.2608 1.16888 13.5677 1.25947 13.7012 1.50466C13.8346 1.74982 13.744 2.05677 13.4988 2.19017Z" fill="#219D5A"/>
<defs>
<linearGradient id="paint0_linear_833_3737" x1="10.2974" y1="1.78747" x2="10.1912" y2="4.90333" gradientUnits="userSpaceOnUse">
<stop stop-color="#FFB92D"/>
<stop offset="1" stop-color="#F59500"/>
</linearGradient>
<linearGradient id="paint1_linear_833_3737" x1="10.807" y1="3.85652" x2="10.5176" y2="6.24353" gradientUnits="userSpaceOnUse">
<stop stop-color="#FFB92D"/>
<stop offset="1" stop-color="#F59500"/>
</linearGradient>
<linearGradient id="paint2_linear_833_3737" x1="9.9998" y1="7.0746" x2="9.9998" y2="12.1772" gradientUnits="userSpaceOnUse">
<stop stop-color="#FF4C54"/>
<stop offset="1" stop-color="#BE3F45"/>
</linearGradient>
<linearGradient id="paint3_linear_833_3737" x1="9.9998" y1="10.8637" x2="9.9998" y2="18.7443" gradientUnits="userSpaceOnUse">
<stop stop-color="#FF4C54"/>
<stop offset="1" stop-color="#BE3F45"/>
</linearGradient>
<linearGradient id="paint4_linear_833_3737" x1="18.0651" y1="12.4754" x2="16.7373" y2="12.4754" gradientUnits="userSpaceOnUse">
<stop stop-color="#BE3F45" stop-opacity="0"/>
<stop offset="1" stop-color="#BE3F45"/>
</linearGradient>
<linearGradient id="paint5_linear_833_3737" x1="6.18984" y1="11.1124" x2="12.9446" y2="14.2283" gradientUnits="userSpaceOnUse">
<stop stop-color="#C47E4D"/>
<stop offset="1" stop-color="#F59500"/>
</linearGradient>
<linearGradient id="paint6_linear_833_3737" x1="8.69675" y1="18.05" x2="8.41754" y2="20.1841" gradientUnits="userSpaceOnUse">
<stop stop-color="#BE3F45" stop-opacity="0"/>
<stop offset="1" stop-color="#BE3F45"/>
</linearGradient>
</defs>
</svg>
