<svg width="20" height="20" viewBox="0 0 20 20" fill="none" xmlns="http://www.w3.org/2000/svg">
<g clip-path="url(#clip0_833_3706)">
<path d="M7.34844 8.09493L8.7907 1.625H4.47023C4.37555 1.625 4.29879 1.70176 4.29879 1.79645V7.44696L7.34844 8.09493Z" fill="#43B44F"/>
<path d="M6.18199 2.84418C6.1416 3.19199 5.86563 3.46797 5.51777 3.5084C5.46684 3.5143 5.42941 3.55926 5.42941 3.61055V7.44723L6.73492 6.27051L8.13797 2.75586H6.2841C6.23285 2.75582 6.18789 2.79324 6.18199 2.84418Z" fill="#D8F1A0"/>
<path d="M14.8044 7.44715L16.7108 4.14523C16.7581 4.0632 16.73 3.95836 16.648 3.91101L9.91372 0.023001C9.83172 -0.0243427 9.72684 0.00374322 9.6795 0.0857355L5.42941 7.44715L10.6379 7.94211L14.8044 7.44715Z" fill="#43B44F"/>
<path d="M14.5119 3.98326L10.9193 1.90908C10.8749 1.88346 10.8172 1.89338 10.7866 1.93455C10.5777 2.21557 10.2007 2.31658 9.87934 2.17768C9.83426 2.15818 9.77629 2.17943 9.75176 2.22193L6.73496 7.44717L12.0739 7.94214L13.4989 7.44717L14.8247 5.1508C14.8504 5.10639 14.8404 5.04877 14.7993 5.01819C14.5183 4.80928 14.4172 4.43229 14.5561 4.11088C14.5765 4.06377 14.5563 4.00889 14.5119 3.98326V3.98326Z" fill="#E2F4B4"/>
<path d="M11.8004 5.2935C12.2041 5.2935 12.5314 4.96623 12.5314 4.56252C12.5314 4.15881 12.2041 3.83154 11.8004 3.83154C11.3967 3.83154 11.0694 4.15881 11.0694 4.56252C11.0694 4.96623 11.3967 5.2935 11.8004 5.2935Z" fill="#288532"/>
<path d="M12.0739 7.44706C11.8296 6.91347 11.423 6.44792 10.8761 6.13214C9.47523 5.32336 7.68394 5.80332 6.87516 7.20417C6.8291 7.28394 6.78723 7.36499 6.74945 7.44706H12.0739Z" fill="#288532"/>
<path d="M17.0315 9.29727C17.0315 8.27555 16.2032 7.44727 15.1815 7.44727H3.01188C2.76309 7.44727 2.56141 7.64895 2.56141 7.89773V19.5496C2.56141 19.7984 2.76309 20.0001 3.01188 20.0001H15.1814C16.2031 20.0001 17.0314 19.1718 17.0314 18.1501V9.29727H17.0315Z" fill="#D09080"/>
<path d="M15.1815 19.0802H3.56574C3.39902 19.0802 3.26395 18.9451 3.26395 18.7784C3.26395 18.6118 3.39906 18.4766 3.56574 18.4766H15.1815C15.3615 18.4766 15.5079 18.33 15.5079 18.1498V16.3568C15.5079 16.1901 15.643 16.055 15.8097 16.055C15.9764 16.055 16.1115 16.1902 16.1115 16.3568V18.1497C16.1116 18.6629 15.6943 19.0802 15.1815 19.0802V19.0802ZM16.1116 11.0897V9.29678C16.1116 8.78393 15.6943 8.3667 15.1815 8.3667H3.56574C3.39902 8.3667 3.26395 8.50182 3.26395 8.6685C3.26395 8.83521 3.39906 8.97029 3.56574 8.97029H15.1815C15.3615 8.97029 15.5079 9.11674 15.5079 9.29674V11.0897C15.5079 11.2564 15.643 11.3915 15.8097 11.3915C15.9764 11.3915 16.1116 11.2564 16.1116 11.0897V11.0897Z" fill="#C67D66"/>
<path d="M15.1815 7.44727H15.0984C15.3024 7.74465 15.4218 8.10457 15.4218 8.49242V16.0488C15.4218 17.7866 14.0131 19.1953 12.2753 19.1953H2.56141V19.5497C2.56141 19.7985 2.76309 20.0002 3.01188 20.0002H15.1814C16.2031 20.0002 17.0314 19.1719 17.0314 18.1502V9.29727C17.0315 8.27551 16.2032 7.44727 15.1815 7.44727V7.44727Z" fill="#C67D66"/>
<path d="M16.1116 18.1504V16.3575C16.1116 16.1907 15.9765 16.0557 15.8098 16.0557C15.6431 16.0557 15.508 16.1908 15.508 16.3575V18.1504C15.508 18.3306 15.3615 18.4772 15.1816 18.4772H14.2766C13.9422 18.7532 13.5497 18.9614 13.1203 19.0808H15.1816C15.6943 19.0809 16.1116 18.6635 16.1116 18.1504Z" fill="#BE694F"/>
<path d="M15.4194 8.39795C15.4209 8.42928 15.4218 8.4608 15.4218 8.49252V9.07643C15.4752 9.13459 15.5079 9.21213 15.5079 9.29717V11.0901C15.5079 11.2568 15.6431 11.3919 15.8097 11.3919C15.9764 11.3919 16.1115 11.2567 16.1115 11.0901V9.29717C16.1116 8.8665 15.8173 8.5033 15.4194 8.39795V8.39795Z" fill="#BE694F"/>
<path d="M17.2226 15.3526H14.5473C13.6595 15.3526 12.9399 14.633 12.9399 13.7452V13.7017C12.9399 12.8139 13.6596 12.0942 14.5473 12.0942H17.2226C17.3419 12.0942 17.4386 12.191 17.4386 12.3103V15.1366C17.4386 15.2559 17.3419 15.3526 17.2226 15.3526Z" fill="#E2BCAF"/>
<path d="M16.2313 12.0942V13.4349C16.2313 14.0496 15.7331 14.5478 15.1184 14.5478H13.34C13.275 14.5478 13.2108 14.5439 13.1478 14.5364C13.4239 15.0237 13.9472 15.3526 14.5473 15.3526H17.2226C17.3419 15.3526 17.4386 15.2559 17.4386 15.1366V12.3103C17.4386 12.191 17.3419 12.0943 17.2226 12.0943H16.2313V12.0942Z" fill="#D8A595"/>
<path d="M14.5691 14.3349C14.9067 14.3349 15.1804 14.0612 15.1804 13.7236C15.1804 13.386 14.9067 13.1123 14.5691 13.1123C14.2315 13.1123 13.9578 13.386 13.9578 13.7236C13.9578 14.0612 14.2315 14.3349 14.5691 14.3349Z" fill="#756E78"/>
</g>
<defs>
<clipPath id="clip0_833_3706">
<rect width="20" height="20" fill="white"/>
</clipPath>
</defs>
</svg>
