<svg width="20" height="20" viewBox="0 0 20 20" fill="none" xmlns="http://www.w3.org/2000/svg">
<g clip-path="url(#clip0_814_3591)">
<path d="M1.56252 3.29248H17.1875C18.0469 3.29248 18.75 3.9956 18.75 4.855V6.73001C18.75 7.58941 18.0469 8.29253 17.1875 8.29253H1.56252C0.703122 8.29245 0 7.58933 0 6.72997V4.85496C0 3.9956 0.703122 3.29248 1.56252 3.29248Z" fill="#A86A3F"/>
<path d="M4.98438 4.96481L14.7656 2.37107C15.0938 2.27733 15.4375 2.48045 15.5312 2.80859L17.1562 8.80859C17.25 9.13672 17.0469 9.48045 16.7187 9.57419L3.98438 12.9648C3.65625 13.0585 3.31252 12.8554 3.21878 12.5273L2.03125 8.12106L4.98438 4.96481Z" fill="#8EF17E"/>
<path d="M15.4531 8.6209L13.3438 9.18338C13.1719 9.23027 13 9.13649 12.9688 8.96462C12.9219 8.79276 13.0157 8.62086 13.1875 8.58964L15 8.10527L14.0313 4.48028L12.2188 4.96464C12.0469 5.01154 11.875 4.91775 11.8438 4.74589C11.7969 4.57402 11.8907 4.40212 12.0626 4.3709L14.1719 3.80842C14.3438 3.76152 14.5157 3.85531 14.5469 4.02717L15.6719 8.24591C15.7187 8.41777 15.625 8.58964 15.4531 8.6209ZM6.70312 10.9803L4.59376 11.5428C4.4219 11.5897 4.25 11.4959 4.21877 11.324L3.09377 7.10527C3.04688 6.93341 3.14067 6.76151 3.31253 6.73029L5.42189 6.1678C5.59375 6.12091 5.76566 6.2147 5.79688 6.38656C5.84377 6.55842 5.74999 6.73033 5.57812 6.76155L3.76563 7.24591L4.73436 10.8709L6.54685 10.3865C6.71872 10.3396 6.89062 10.4334 6.92184 10.6053C6.96873 10.7615 6.87499 10.9334 6.70312 10.9803Z" fill="#78CABB"/>
<path d="M0.125008 7.1521C2.90623 5.55832 10.4063 1.16768 10.4063 1.16768C10.7031 0.995818 11.0938 1.08957 11.2657 1.38644L14.3907 6.76144C14.5625 7.05831 14.4531 7.4333 14.1563 7.6052L2.71874 14.1677C2.42187 14.3396 2.03125 14.2458 1.85935 13.9489C1.85935 13.9489 0.984361 12.1677 0.109337 10.6677C0.109377 7.1521 0.125008 8.30832 0.125008 7.1521Z" fill="#8EF17E"/>
<path d="M12.7969 6.58961L10.6094 2.80835C10.5156 2.65212 10.3281 2.60523 10.1875 2.69897L8.2969 3.79271C8.14067 3.88646 8.09377 4.07395 8.18752 4.21459C8.28127 4.37083 8.46876 4.41772 8.6094 4.32397L10.2344 3.38646L12.1094 6.63646L10.4844 7.57397C10.3282 7.66771 10.2813 7.85521 10.375 7.99585C10.4688 8.15208 10.6563 8.19897 10.7969 8.10523L12.6875 7.01149C12.8281 6.93337 12.8906 6.74588 12.7969 6.58961ZM4.51564 11.0115L2.89064 11.949L1.01562 8.69897L2.64062 7.76146C2.79685 7.66771 2.84375 7.48022 2.75 7.33958C2.65625 7.18335 2.46876 7.13646 2.32812 7.2302L0.43751 8.32394C0.281279 8.41769 0.234385 8.60518 0.328132 8.74582L2.51561 12.5271C2.60936 12.6833 2.79685 12.7302 2.93749 12.6365L4.8281 11.5427C4.98434 11.449 5.03123 11.2615 4.93748 11.1208C4.85937 10.9802 4.67187 10.9177 4.51564 11.0115ZM5.31251 5.49587C4.10939 6.18336 3.70314 7.71461 4.39063 8.91772C5.09375 10.1208 6.60938 10.5271 7.81249 9.8396C9.01561 9.15211 9.42186 7.62086 8.73437 6.41774C8.03125 5.23022 6.51563 4.80838 5.31251 5.49587ZM12.7969 6.58961L10.6094 2.80835C10.5156 2.65212 10.3281 2.60523 10.1875 2.69897L8.2969 3.79271C8.14067 3.88646 8.09377 4.07395 8.18752 4.21459C8.28127 4.37083 8.46876 4.41772 8.6094 4.32397L10.2344 3.38646L12.1094 6.63646L10.4844 7.57397C10.3282 7.66771 10.2813 7.85521 10.375 7.99585C10.4688 8.15208 10.6563 8.19897 10.7969 8.10523L12.6875 7.01149C12.8281 6.93337 12.8906 6.74588 12.7969 6.58961ZM4.51564 11.0115L2.89064 11.949L1.01562 8.69897L2.64062 7.76146C2.79685 7.66771 2.84375 7.48022 2.75 7.33958C2.65625 7.18335 2.46876 7.13646 2.32812 7.2302L0.43751 8.32394C0.281279 8.41769 0.234385 8.60518 0.328132 8.74582L2.51561 12.5271C2.60936 12.6833 2.79685 12.7302 2.93749 12.6365L4.8281 11.5427C4.98434 11.449 5.03123 11.2615 4.93748 11.1208C4.85937 10.9802 4.67187 10.9177 4.51564 11.0115ZM5.31251 5.49587C4.10939 6.18336 3.70314 7.71461 4.39063 8.91772C5.09375 10.1208 6.60938 10.5271 7.81249 9.8396C9.01561 9.15211 9.42186 7.62086 8.73437 6.41774C8.03125 5.23022 6.51563 4.80838 5.31251 5.49587Z" fill="#61D24F"/>
<path d="M17.8125 18.9175H1.56252C0.703122 18.9175 0 18.2144 0 17.355V6.10499H17.8125C18.6719 6.10499 19.375 6.80811 19.375 7.6675V17.355C19.375 18.2144 18.6719 18.9175 17.8125 18.9175ZM1.25001 6.10499H0V4.85498C0 5.54247 0.562482 6.10499 1.25001 6.10499Z" fill="url(#paint0_linear_814_3591)"/>
<path d="M19.375 15.0117H16.875C15.6719 15.0117 14.6875 14.0273 14.6875 12.8242C14.6875 11.6211 15.6719 10.6367 16.875 10.6367H19.375C19.7188 10.6367 20 10.918 20 11.2617V14.3867C20 14.7304 19.7188 15.0117 19.375 15.0117Z" fill="#A86A3F"/>
<path d="M16.875 11.5737C17.5625 11.5737 18.125 12.1362 18.125 12.8237C18.125 13.5113 17.5625 14.0737 16.875 14.0737C16.1875 14.0737 15.625 13.5113 15.625 12.8237C15.625 12.1362 16.1875 11.5737 16.875 11.5737Z" fill="#EFC75E"/>
<path d="M17.1875 13.7612C16.5 13.7612 15.9375 13.1988 15.9375 12.5112C15.9375 12.2456 16.0156 11.9956 16.1563 11.7925C15.8281 12.0112 15.625 12.3862 15.625 12.8237C15.625 13.5112 16.1875 14.0737 16.875 14.0737C17.2969 14.0737 17.6719 13.855 17.9062 13.5425C17.7031 13.6831 17.4531 13.7612 17.1875 13.7612Z" fill="#D7B354"/>
<path d="M17.8125 18.2925H1.56252C0.703122 18.2925 0 17.5894 0 16.73V17.355C0 18.2144 0.703122 18.9175 1.56252 18.9175H17.8125C18.6719 18.9175 19.375 18.2144 19.375 17.355V16.73C19.375 17.5894 18.6719 18.2925 17.8125 18.2925Z" fill="#B27245"/>
<path d="M17.8125 6.10499H1.25001C0.562482 6.10499 0 5.54247 0 4.85498V5.47999C0 6.16748 0.562482 6.73 1.25001 6.73H17.8125C18.6719 6.73 19.375 7.43312 19.375 8.29251V7.66751C19.375 6.80811 18.6719 6.10499 17.8125 6.10499Z" fill="#CA8B5F"/>
</g>
<defs>
<linearGradient id="paint0_linear_814_3591" x1="2.38769e-07" y1="12" x2="19" y2="16" gradientUnits="userSpaceOnUse">
<stop stop-color="#FFB92D"/>
<stop offset="1" stop-color="#F69703"/>
</linearGradient>
<clipPath id="clip0_814_3591">
<rect width="20" height="20" fill="white"/>
</clipPath>
</defs>
</svg>
