<svg width="20" height="20" viewBox="0 0 20 20" fill="none" xmlns="http://www.w3.org/2000/svg">
<g clip-path="url(#clip0_780_3657)">
<path d="M9.99464 0.0053759C4.47505 0.00654708 0.00148365 4.48202 0.00265483 10.0016C0.00304522 11.9129 0.55151 13.7839 1.58293 15.3929L0.0280305 19.4272C-0.0547722 19.6418 0.0520397 19.8829 0.2666 19.9657C0.31458 19.9842 0.365526 19.9937 0.416941 19.9936C0.464647 19.9938 0.512002 19.9857 0.556859 19.9694L4.72108 18.4828C9.40628 21.4008 15.5699 19.9682 18.4879 15.2829C21.4058 10.5977 19.9732 4.43412 15.288 1.51616C13.6998 0.526981 11.8658 0.00354105 9.99464 0.0053759Z" fill="#4CAF50"/>
<path d="M14.7593 11.7076C14.7593 11.7076 13.7391 11.2079 13.1003 10.8748C12.3774 10.5025 11.5279 11.1996 11.1281 11.596C10.506 11.3571 9.93771 10.9963 9.45663 10.535C8.99522 10.054 8.6345 9.48573 8.39557 8.86348C8.79202 8.4629 9.48743 7.61422 9.11683 6.89133C8.78784 6.2517 8.284 5.23231 8.284 5.23149C8.2133 5.09118 8.06967 5.0026 7.91254 5.00244H7.07971C5.86684 5.21193 4.98498 6.27021 4.99762 7.50097C4.99762 8.80852 6.56252 11.3204 7.61775 12.3764C8.67299 13.4324 11.1848 14.9965 12.4932 14.9965C13.7239 15.0092 14.7822 14.1273 14.9917 12.9145V12.0816C14.9918 11.9228 14.9017 11.7778 14.7593 11.7076Z" fill="#FAFAFA"/>
</g>
<defs>
<clipPath id="clip0_780_3657">
<rect width="20" height="20" fill="white"/>
</clipPath>
</defs>
</svg>
