<svg width="32" height="32" viewBox="0 0 32 32" fill="none" xmlns="http://www.w3.org/2000/svg">
<g clip-path="url(#clip0_771_5948)">
<path d="M2.1333 30.9333C2.1333 31.5224 2.61086 32 3.19999 32H5.3333C5.92243 32 6.39999 31.5224 6.39999 30.9333V1.06669C6.39999 0.477562 5.92243 0 5.3333 0H3.19999C2.61086 0 2.1333 0.477562 2.1333 1.06669V30.9333Z" fill="#BEBEBE"/>
<path d="M5.33336 0H3.80005C4.38911 0 4.86674 0.477562 4.86674 1.06669V30.9334C4.86674 31.5225 4.38917 32.0001 3.80005 32.0001H5.33336C5.92242 32.0001 6.40005 31.5225 6.40005 30.9334V1.06669C6.40005 0.477562 5.92249 0 5.33336 0V0Z" fill="#AAAAAA"/>
<path d="M26.8229 2.28949C26.7229 2.18949 26.5872 2.1333 26.4457 2.1333H7.46669H1.06669C0.477562 2.13324 0 2.6108 0 3.19993V28.7999C0 29.389 0.477562 29.8666 1.06669 29.8666H7.46669H30.9334C31.5225 29.8666 32.0001 29.389 32.0001 28.7999V7.68749C32.0001 7.54605 31.9439 7.41036 31.8439 7.31036L26.8229 2.28949Z" fill="#D8E2F3"/>
<path d="M22.4001 29.8667H18.1334L11.7334 2.1333H16.0001L22.4001 29.8667Z" fill="#EDF6FF"/>
<path d="M8 5.8999C7.72381 5.8999 7.5 6.12371 7.5 6.3999V8.53321C7.5 8.8094 7.72381 9.03321 8 9.03321C8.27619 9.03321 8.5 8.8094 8.5 8.53321V6.3999C8.5 6.12371 8.27619 5.8999 8 5.8999Z" fill="#BACDEA"/>
<path d="M8 10.1665C7.72381 10.1665 7.5 10.3903 7.5 10.6665V12.7999C7.5 13.0761 7.72381 13.2999 8 13.2999C8.27619 13.2999 8.5 13.0761 8.5 12.7999V10.6666C8.5 10.3903 8.27619 10.1665 8 10.1665Z" fill="#BACDEA"/>
<path d="M8 18.7002C7.72381 18.7002 7.5 18.924 7.5 19.2002V21.3335C7.5 21.6097 7.72381 21.8335 8 21.8335C8.27619 21.8335 8.5 21.6097 8.5 21.3335V19.2002C8.5 18.924 8.27619 18.7002 8 18.7002Z" fill="#BACDEA"/>
<path d="M8 14.4331C7.72381 14.4331 7.5 14.6569 7.5 14.9331V17.0664C7.5 17.3426 7.72381 17.5664 8 17.5664C8.27619 17.5664 8.5 17.3426 8.5 17.0664V14.9331C8.5 14.6569 8.27619 14.4331 8 14.4331Z" fill="#BACDEA"/>
<path d="M8 22.9668C7.72381 22.9668 7.5 23.1906 7.5 23.4668V25.6002C7.5 25.8764 7.72381 26.1002 8 26.1002C8.27619 26.1002 8.5 25.8764 8.5 25.6002V23.4669C8.5 23.1906 8.27619 22.9668 8 22.9668Z" fill="#BACDEA"/>
<path d="M7.5 2.1333V4.26661C7.5 4.5428 7.72381 4.76661 8 4.76661C8.27619 4.76661 8.5 4.5428 8.5 4.26661V2.1333H7.5Z" fill="#BACDEA"/>
<path d="M8 27.2334C7.72381 27.2334 7.5 27.4572 7.5 27.7334V29.8667H8.5V27.7334C8.5 27.4572 8.27619 27.2334 8 27.2334Z" fill="#BACDEA"/>
<path d="M31.8437 7.31023L30.4666 5.93311V28.7998C30.4666 29.3889 29.989 29.8665 29.3999 29.8665H30.9332C31.5223 29.8665 31.9999 29.3889 31.9999 28.7998V7.68736C32 7.54592 31.9438 7.41029 31.8437 7.31023Z" fill="#BACDEA"/>
<path d="M31.8438 7.31027L26.8229 2.28933C26.7774 2.24377 26.7242 2.20783 26.6667 2.18164V6.39977C26.6667 6.98889 27.1443 7.46646 27.7334 7.46646H31.9516C31.9253 7.40902 31.8894 7.35583 31.8438 7.31027Z" fill="#EDF6FF"/>
<path d="M30.4668 7.46691H31.9516C31.9516 7.46691 31.9516 7.46684 31.9515 7.46678C31.9385 7.43828 31.9231 7.41091 31.9054 7.38497C31.9049 7.38428 31.9044 7.38366 31.9039 7.38303C31.8862 7.35734 31.8662 7.33309 31.8439 7.31072L30.4668 5.93359V7.46691Z" fill="#D8E2F3"/>
</g>
<defs>
<clipPath id="clip0_771_5948">
<rect width="32" height="32" fill="white"/>
</clipPath>
</defs>
</svg>
