<svg width="32" height="32" viewBox="0 0 32 32" fill="none" xmlns="http://www.w3.org/2000/svg">
<g clip-path="url(#clip0_847_3707)">
<path d="M11.1003 16.7493L22.4106 4.15406C22.4106 4.15406 27.0164 -1.58226 31.5513 0.42677C31.895 0.579114 32.0532 0.979748 31.9165 1.33009C31.1797 3.21656 28.3223 9.51197 19.7485 19.7776C19.5283 20.041 19.1516 20.1111 18.8521 19.9426L15.2896 17.939C15.0457 17.8018 14.739 17.8523 14.5518 18.0606L13.6628 19.0505L11.1003 16.7493Z" fill="#BFBFBF"/>
<path d="M19.748 19.7776C19.5281 20.041 19.1514 20.1108 18.8523 19.9421L18.2114 19.582C27.0679 8.90747 30.1172 2.30322 30.9487 0.205078C31.1501 0.263672 31.3506 0.337891 31.5517 0.426758C31.8952 0.578858 32.0537 0.979737 31.9162 1.33057C31.1799 3.21655 28.3223 9.51172 19.748 19.7776V19.7776Z" fill="#ACACAC"/>
<path d="M15.0361 19.448L11.5156 16.2861L8.97556 19.1145L0.626196 28.4126C-0.154078 29.2815 -0.127711 30.6299 0.726538 31.4265C1.73948 32.3711 3.36326 32.1138 4.03757 30.9124L4.26438 30.5081C4.94431 29.2969 5.8115 28.2009 6.83396 27.2608L7.51365 26.636C8.55735 25.6763 9.43943 24.5542 10.1252 23.3132L10.8921 21.9258C11.157 21.4463 11.5276 21.0335 11.9753 20.718C12.5239 20.3318 13.251 20.252 13.8423 20.5689C14.1501 20.7339 14.53 20.6668 14.7627 20.4075L15.0693 20.0659C15.2309 19.8862 15.216 19.6096 15.0361 19.448V19.448Z" fill="#BC7D53"/>
<path d="M15.0364 19.4485L14.6458 19.0977C14.7034 19.1519 14.4456 19.3762 14.4041 19.4065C14.0442 19.6672 13.5188 19.5835 13.1243 19.4756C12.6792 19.3538 12.1675 19.3962 11.7368 19.5549C11.4546 19.6592 11.2141 19.8174 11.0063 20.0322C10.9949 20.0444 10.9402 20.1013 10.8723 20.1724C10.6467 20.4077 10.4524 20.6716 10.2947 20.957L9.36816 22.6331C8.68262 23.8745 7.80054 24.9968 6.75659 25.9563L6.0769 26.5811C5.05493 27.5212 4.1875 28.617 3.50781 29.8284L3.28101 30.2327C3.20117 30.374 3.10962 30.5022 3.00659 30.6167C2.35425 31.3433 1.27808 31.5293 0.421143 31.0691C0.514648 31.2085 0.626953 31.3377 0.757324 31.4546C1.65112 32.2571 2.99854 32.1477 3.7627 31.2966C3.86548 31.1821 3.95825 31.0537 4.0376 30.9119L4.26489 30.5081C4.94458 29.2969 5.81152 28.2007 6.83398 27.2608L7.51367 26.6362C8.55688 25.6763 9.4397 24.5542 10.1252 23.313L10.8757 21.9553C11.1516 21.4563 11.5369 21.0266 12.0029 20.6982C12.5479 20.3152 13.2605 20.2668 13.8513 20.574C14.1572 20.7322 14.5327 20.6638 14.7632 20.4072L15.0696 20.0662C15.231 19.8865 15.2161 19.6099 15.0364 19.4485V19.4485Z" fill="#AF663E"/>
<path d="M7.38159 24.5598C7.38159 24.9285 7.08276 25.2273 6.71411 25.2273C6.34546 25.2273 6.04663 24.9285 6.04663 24.5598C6.04663 24.1914 6.34546 23.8926 6.71411 23.8926C7.08276 23.8926 7.38159 24.1914 7.38159 24.5598Z" fill="#704138"/>
<path d="M3.62036 28.7485C3.62036 29.1172 3.32153 29.416 2.95288 29.416C2.58447 29.416 2.28564 29.1172 2.28564 28.7485C2.28564 28.3799 2.58447 28.0811 2.95288 28.0811C3.32153 28.0811 3.62036 28.3799 3.62036 28.7485Z" fill="#704138"/>
</g>
<defs>
<clipPath id="clip0_847_3707">
<rect width="32" height="32" fill="white"/>
</clipPath>
</defs>
</svg>
